<svg width="60" height="60" viewBox="0 0 60 60" fill="none" xmlns="http://www.w3.org/2000/svg">
<path fill-rule="evenodd" clip-rule="evenodd" d="M0 29.8247C0 37.2441 1.77984 39.0244 9.19969 39.0244C16.6191 39.0244 18.3994 37.2441 18.3994 29.8247C18.3994 22.4048 16.6191 20.625 9.19969 20.625C1.77984 20.625 0 22.4048 0 29.8247ZM3.70969 31.7358L6.59531 25.178C7.08281 24.0727 8.01937 23.4731 9.19969 23.4731C10.38 23.4731 11.3166 24.0727 11.8041 25.178L14.6892 31.7358C14.8205 32.0545 14.933 32.4666 14.933 32.8223C14.933 34.4527 13.7902 35.5955 12.1598 35.5955C11.6048 35.5955 11.1638 35.4539 10.7175 35.3105C10.26 35.1633 9.79687 35.0147 9.19969 35.0147C8.60906 35.0147 8.13469 35.1647 7.66828 35.3123C7.21734 35.4548 6.77344 35.5955 6.23906 35.5955C4.60922 35.5955 3.46641 34.4527 3.46641 32.8223C3.46641 32.4661 3.57844 32.0541 3.70969 31.7358ZM9.19969 26.3203L6.35156 32.7656C7.19484 32.3719 8.16891 32.1848 9.19969 32.1848C10.1925 32.1848 11.2045 32.3723 12.0098 32.7661L9.19969 26.3203ZM52.5834 25.1264C51.9445 25.1264 51.4833 25.5787 51.4833 26.2092C51.4833 26.8387 51.9445 27.2911 52.5834 27.2911C53.2219 27.2911 53.6836 26.8387 53.6836 26.2087C53.6836 25.5787 53.2219 25.1264 52.5834 25.1264ZM32.4623 34.425C30.7589 34.425 29.5261 33.1655 29.5261 31.1953C29.5261 29.1905 30.7589 27.9309 32.4623 27.9309C33.2522 27.9309 33.8377 28.1972 34.1836 28.7203V25.4109H35.9578V34.283H34.1836V33.653C33.8461 34.1677 33.2611 34.425 32.4623 34.425ZM31.3359 31.1953C31.3359 30.0956 31.9303 29.3766 32.835 29.3766C33.7491 29.3766 34.3345 30.0867 34.3345 31.1869C34.3345 32.2692 33.7486 32.97 32.835 32.97C31.9303 32.97 31.3359 32.2688 31.3359 31.1953ZM38.7436 31.178C38.7436 30.0867 39.338 29.3859 40.2248 29.3859C41.1211 29.3859 41.7155 30.0867 41.7155 31.178C41.7155 32.2692 41.1211 32.97 40.2248 32.97C39.338 32.97 38.7436 32.2692 38.7436 31.178ZM58.2966 32.5884C58.2966 32.9166 58.0481 33.112 57.4181 33.112C56.7084 33.112 56.265 32.7394 56.265 32.287H54.4908C54.5348 33.5109 55.6973 34.4245 57.383 34.4245C58.9795 34.4245 60 33.7153 60 32.4558C60 31.515 59.3967 30.8583 58.1991 30.6187L56.9128 30.3614C56.5223 30.2817 56.2917 30.0867 56.2917 29.8294C56.2917 29.4478 56.6822 29.2434 57.1786 29.2434C57.8883 29.2434 58.1634 29.572 58.1634 29.9625H59.8491C59.8045 28.8094 58.8998 27.9309 57.2142 27.9309C55.6439 27.9309 54.5794 28.7203 54.5794 29.9184C54.5794 31.0003 55.2802 31.4888 56.3273 31.71L57.6047 31.9852C58.0214 32.0742 58.2966 32.2514 58.2966 32.5884ZM51.705 28.073H53.4792V34.283H51.705V28.073ZM46.2755 28.073V28.7203C46.7278 28.1972 47.3311 27.9309 48.0764 27.9309C49.4695 27.9309 50.3742 28.8356 50.3742 30.2372V34.2825H48.6V30.6094C48.6 29.8556 48.1739 29.4033 47.438 29.4033C46.7016 29.4033 46.2755 29.8556 46.2755 30.6098V34.2825H44.5012V28.0725L46.2755 28.073ZM40.2253 27.9309C38.3353 27.9309 36.9337 29.2969 36.9337 31.178C36.9337 33.0586 38.3353 34.425 40.2253 34.425C42.1238 34.425 43.5253 33.0586 43.5253 31.178C43.5253 29.2969 42.1238 27.9309 40.2253 27.9309ZM25.4269 29.377C24.5222 29.377 23.9278 30.0956 23.9278 31.1958C23.9278 32.2692 24.5222 32.97 25.4273 32.97C26.3414 32.97 26.9264 32.2692 26.9264 31.1869C26.9264 30.0867 26.3405 29.377 25.4269 29.377ZM22.118 31.1958C22.118 33.1655 23.3512 34.425 25.0458 34.425C25.853 34.425 26.4295 34.1672 26.7755 33.653V34.283H28.5502V28.0725H26.7759V28.7198C26.4211 28.1967 25.8352 27.9305 25.0458 27.9305C23.3512 27.9305 22.118 29.1905 22.118 31.1958Z" fill="#CBCBCB"/>
</svg>
