<svg width="60" height="60" viewBox="0 0 60 60" fill="none" xmlns="http://www.w3.org/2000/svg">
<path d="M18.9985 36.478V23.7843H19.6876V25.7812C19.769 25.6927 19.8442 25.5987 19.9126 25.4999C20.1942 24.9154 20.6365 24.4233 21.1878 24.0813C21.739 23.7392 22.3764 23.5614 23.0251 23.5687C24.5954 23.5218 25.8704 24.103 26.6204 25.4999C27.0976 26.3677 27.3602 27.337 27.3863 28.327C27.4124 29.317 27.2012 30.2988 26.7704 31.1905C26.072 32.7562 24.347 33.5343 22.5001 33.2483C21.9254 33.1994 21.372 33.0073 20.8906 32.6896C20.4091 32.3719 20.0149 31.9387 19.7438 31.4296V36.478H18.9985ZM19.6876 28.2749C19.7485 28.8937 19.772 29.3343 19.8423 29.7655C20.1142 31.4624 21.1173 32.4702 22.6923 32.653C23.4318 32.7746 24.1906 32.6359 24.8394 32.2607C25.4881 31.8855 25.9867 31.2969 26.2501 30.5952C26.5528 29.8735 26.6984 29.0957 26.6774 28.3134C26.6564 27.531 26.4692 26.7621 26.1282 26.0577C25.8471 25.4288 25.3689 24.9085 24.766 24.5753C24.1631 24.2422 23.4681 24.1142 22.786 24.2108C22.1457 24.2572 21.5357 24.502 21.0408 24.9111C20.546 25.3203 20.191 25.8734 20.0251 26.4937C19.8783 27.0804 19.7656 27.6751 19.6876 28.2749ZM41.4423 29.9999C41.3379 30.8936 40.9124 31.719 40.2451 32.3226C39.5777 32.9261 38.7139 33.2668 37.8142 33.2812C34.9267 33.4265 33.572 31.5093 33.3563 29.2968C33.2067 28.0953 33.4018 26.876 33.9188 25.7812C34.2789 25.0302 34.8687 24.4133 35.6027 24.0197C36.3367 23.6262 37.1769 23.4764 38.0017 23.5921C38.7858 23.6585 39.5291 23.97 40.1264 24.4823C40.7237 24.9947 41.1447 25.6819 41.3298 26.4468C41.4765 27.1434 41.5845 27.8476 41.6532 28.5562H34.0642C33.9235 30.5624 35.0017 32.1749 36.5298 32.564C38.4329 33.0327 40.0595 32.2077 40.6501 30.3983C40.7813 29.9343 41.0204 29.8687 41.4423 29.9999ZM34.0642 27.914H40.847C40.8048 25.7765 39.4735 24.2296 37.6688 24.2062C35.6251 24.1733 34.1532 25.664 34.0642 27.914ZM42.8392 30.0468H43.5048C43.5294 30.5366 43.6885 31.0101 43.9647 31.4153C44.2409 31.8205 44.6235 32.1417 45.0704 32.3437C45.6316 32.5962 46.2425 32.7189 46.8577 32.7027C47.4729 32.6865 48.0765 32.5317 48.6235 32.2499C48.9217 32.1155 49.1714 31.8929 49.3391 31.6121C49.5067 31.3313 49.5842 31.0058 49.561 30.6796C49.5782 30.365 49.4923 30.0533 49.3163 29.7919C49.1404 29.5306 48.884 29.3337 48.586 29.2312C47.8548 28.9593 47.0767 28.8093 46.3313 28.5702C45.5559 28.3494 44.7976 28.0721 44.0626 27.7405C42.8626 27.1546 42.7876 24.8718 44.147 24.1499C44.843 23.7571 45.6264 23.5449 46.4255 23.5326C47.2247 23.5203 48.0142 23.7084 48.722 24.0796C49.1507 24.3166 49.4971 24.6786 49.7148 25.1174C49.9326 25.5563 50.0114 26.0511 49.9407 26.5358H49.3688C49.3688 26.5077 49.3173 26.4843 49.3173 26.4562C49.247 24.6327 47.7188 24.0702 46.0782 24.2296C45.5885 24.29 45.1128 24.4343 44.672 24.6562C44.4072 24.7773 44.1865 24.9776 44.0404 25.2295C43.8943 25.4814 43.83 25.7724 43.8563 26.0624C43.8572 26.3525 43.9477 26.6353 44.1155 26.872C44.2834 27.1086 44.5203 27.2876 44.7938 27.3843C45.5157 27.6468 46.2704 27.8155 47.011 28.0218C47.6063 28.1858 48.2251 28.2937 48.8017 28.4905C49.2086 28.6239 49.5654 28.8778 49.8249 29.2184C50.0844 29.5591 50.2343 29.9706 50.2548 30.3983C50.3244 30.867 50.2445 31.3457 50.0266 31.7664C49.8086 32.1872 49.4637 32.5285 49.0407 32.7421C47.4751 33.628 44.897 33.3937 43.7485 32.2733C43.4575 31.9806 43.2273 31.6332 43.0712 31.251C42.9151 30.8688 42.8362 30.4596 42.8392 30.0468ZM58.6923 26.5358H58.0688C58.0688 26.4515 58.036 26.3765 58.0267 26.3062C58.0165 25.8388 57.8462 25.3892 57.5441 25.0325C57.242 24.6758 56.8266 24.4337 56.3673 24.3468C55.5007 24.0981 54.5763 24.1426 53.7376 24.4733C53.4061 24.5684 53.1142 24.7681 52.9056 25.0427C52.6969 25.3172 52.5826 25.6519 52.5798 25.9968C52.5681 26.3354 52.6737 26.6678 52.8787 26.9376C53.0836 27.2075 53.3754 27.3984 53.7048 27.478C54.6423 27.7687 55.6032 27.9468 56.5548 28.2093C56.8631 28.2833 57.1668 28.3756 57.4642 28.4858C57.9082 28.6447 58.294 28.9338 58.5711 29.3154C58.8482 29.697 59.0037 30.1533 59.0174 30.6247C59.0311 31.096 58.9022 31.5606 58.6477 31.9576C58.3932 32.3546 58.0248 32.6656 57.5907 32.8499C56.9292 33.1503 56.2123 33.3092 55.4858 33.3165C54.7593 33.3237 54.0393 33.1792 53.372 32.8921C52.8232 32.6554 52.36 32.2562 52.0449 31.7484C51.7298 31.2405 51.5778 30.6483 51.6095 30.0515H52.2188C52.3316 30.5954 52.5752 31.1036 52.9286 31.5321C53.282 31.9606 53.7345 32.2965 54.247 32.5107C54.7595 32.725 55.3164 32.811 55.8697 32.7615C56.4229 32.712 56.9557 32.5283 57.422 32.2265C57.706 32.0789 57.9418 31.853 58.1013 31.5755C58.2608 31.298 58.3374 30.9806 58.322 30.6608C58.3361 30.346 58.2472 30.0352 58.0687 29.7755C57.8902 29.5158 57.6319 29.3214 57.3329 29.2218C56.6017 28.9499 55.8235 28.8046 55.0782 28.5655C54.2983 28.3481 53.5353 28.0739 52.7954 27.7452C51.6235 27.1687 51.5298 24.9046 52.8657 24.1827C53.5704 23.7735 54.3691 23.5536 55.1839 23.5446C55.9988 23.5355 56.8021 23.7376 57.5157 24.1312C57.9238 24.3748 58.2523 24.7318 58.4612 25.1587C58.6701 25.5857 58.7504 26.0641 58.6923 26.5358ZM17.8595 33.0515C17.614 33.1444 17.3431 33.1442 17.0978 33.0509C16.8525 32.9576 16.6499 32.7777 16.5282 32.5452C15.7642 31.4015 14.9204 30.3093 14.1095 29.1937L13.7579 28.7249C12.7923 30.0187 11.8267 31.2608 10.9454 32.5499C10.8306 32.7721 10.6389 32.9451 10.4061 33.0365C10.1732 33.1279 9.91512 33.1315 9.67978 33.0468L13.3032 28.1858L9.93291 23.7937C10.1755 23.7061 10.4409 23.7049 10.6843 23.7902C10.9277 23.8756 11.1342 24.0424 11.2688 24.2624C12.0517 25.4062 12.9188 26.4983 13.7813 27.6562C14.6485 26.5077 15.5063 25.4108 16.3079 24.2765C16.4234 24.0578 16.6151 23.8893 16.8468 23.8029C17.0784 23.7164 17.3337 23.7182 17.5642 23.8077L16.2563 25.5421C15.6704 26.3155 15.0938 27.0937 14.4845 27.8483C14.4354 27.8923 14.3961 27.9461 14.3692 28.0063C14.3423 28.0665 14.3284 28.1316 14.3284 28.1976C14.3284 28.2635 14.3423 28.3286 14.3692 28.3888C14.3961 28.449 14.4354 28.5028 14.4845 28.5468C15.6048 30.0327 16.7157 31.5233 17.8595 33.0515ZM33.2438 23.7468V24.403C32.7697 24.3719 32.2944 24.4406 31.8485 24.6046C31.4026 24.7686 30.996 25.0242 30.655 25.3551C30.314 25.6859 30.0461 26.0846 29.8687 26.5253C29.6913 26.9661 29.6083 27.4391 29.6251 27.914V33.0702H28.9548V23.7843H29.611V25.6874C30.422 24.2999 31.6735 23.7843 33.2438 23.7468ZM0.998535 28.1249C1.09697 27.6562 1.15791 27.1452 1.29385 26.6671C2.10479 23.7843 5.40947 22.5843 7.68291 24.3702C9.01416 25.4155 9.34697 26.8968 9.28135 28.5655H1.78135C1.65947 31.5468 3.81103 33.3468 6.5626 32.428C7.00894 32.2684 7.4085 32.0001 7.72521 31.6474C8.04191 31.2946 8.2658 30.8686 8.37666 30.4077C8.52197 29.939 8.75635 29.8593 9.20166 29.9952C9.12831 30.5659 8.92654 31.1125 8.61152 31.5939C8.29651 32.0754 7.87644 32.4792 7.38291 32.7749C6.56747 33.2208 5.63192 33.3975 4.71002 33.2796C3.78813 33.1617 2.92711 32.7554 2.2501 32.1187C1.58033 31.3656 1.17535 30.414 1.09697 29.4093C1.09697 29.2499 1.03604 29.0905 1.00322 28.9405C1.0001 28.6624 0.998535 28.3905 0.998535 28.1249ZM1.79072 27.9233H8.57353C8.53135 25.7624 7.16728 24.2296 5.34853 24.2155C3.32353 24.1874 1.8751 25.6874 1.78604 27.914L1.79072 27.9233Z" fill="#EFEEEE"/>
</svg>
