<svg width="60" height="60" viewBox="0 0 60 60" fill="none" xmlns="http://www.w3.org/2000/svg">
<g clip-path="url(#clip0_1017_571)">
<path d="M0.9375 0.46875V59.0625H59.5312V0.46875H0.9375ZM31.9308 50.3967C31.0659 52.1541 29.415 53.3086 27.502 53.8659C24.5625 54.5409 21.7509 54.1561 19.6594 52.9008C18.2597 52.042 17.1666 50.7202 16.4245 49.1972L20.887 46.4644C20.9259 46.4808 21.0431 46.6927 21.1997 46.9664C21.7688 47.9198 22.2595 48.5948 23.2242 49.0688C24.172 49.3922 26.2528 49.5989 27.0563 47.9311C27.547 47.0827 27.3909 44.3555 27.3909 41.3381C27.3905 36.5967 27.4125 31.875 27.4125 27.1875H32.9011C32.9011 32.3438 32.9292 37.2272 32.9011 42.2588C32.9128 45.3431 33.1805 48.0928 31.9308 50.3967ZM54.6998 48.8461C52.792 55.372 42.1552 55.5839 37.9045 51.2723C37.0064 50.2575 36.4434 49.7273 35.9077 48.5559C38.1666 47.2566 38.1666 47.2566 40.3645 45.9848C41.5584 47.82 42.6623 48.8292 44.6484 49.2422C47.3428 49.5713 50.0536 48.6455 49.4456 45.7837C48.8208 43.4466 43.9284 42.878 40.5989 40.3786C37.2188 38.1084 36.4266 32.5922 39.2044 29.4403C40.1302 28.2745 41.7089 27.4045 43.3655 26.9864L45.0942 26.7628C48.4134 26.6958 50.4881 27.5723 52.0111 29.273C52.4348 29.7023 52.7808 30.1655 53.4277 31.1691C51.6595 32.2959 51.6652 32.2852 49.1325 33.9248C48.5916 32.7595 47.6939 32.0283 46.7452 31.7105C45.2723 31.2642 43.4152 31.7494 43.0298 33.3056C42.8962 33.7852 42.9239 34.2314 43.1363 35.0236C43.733 36.3844 45.7355 36.9759 47.5317 37.8014C52.7025 39.8986 54.4486 42.1472 54.878 44.8238C55.2914 47.1281 54.7781 48.623 54.6998 48.8461Z" fill="#EFEEEE"/>
</g>
<defs>
<clipPath id="clip0_1017_571">
<rect width="60" height="60" fill="white"/>
</clipPath>
</defs>
</svg>
