<svg width="60" height="60" viewBox="0 0 60 60" fill="none" xmlns="http://www.w3.org/2000/svg">
<path fill-rule="evenodd" clip-rule="evenodd" d="M38.814 16.0453C37.5934 12.2447 35.6354 8.88092 32.8764 5.98639C32.1789 5.2542 31.4036 4.58342 30.917 3.67264C30.6095 3.09607 30.3165 2.51154 30.017 1.93123L29.8267 1.45264L29.7737 1.64107C29.7489 2.58795 29.2126 3.22967 28.5451 3.8292C27.7933 4.50326 27.0939 5.23545 26.372 5.94279L24.152 8.86264L22.3572 12.1636L21.1567 15.405L21.1206 15.4551C20.4601 17.625 20.1344 19.8562 19.9745 22.109C19.914 22.9561 19.9834 23.8148 20.0308 24.6661C20.0987 25.8829 20.3101 27.0787 20.627 28.2567C21.7787 32.5345 24.1164 36.0825 27.3128 39.0975C27.9062 39.6576 28.5479 40.1672 29.1672 40.6997L29.4414 41.6409L29.6964 43.1015L29.8183 44.6264C29.8169 44.9358 29.8042 45.2465 29.8225 45.555C29.8276 45.6342 29.9308 45.7073 29.9889 45.7833L30.5064 45.9651L31.045 46.1747L30.9526 44.8195L30.9484 43.4845L31.1345 41.4511L31.2695 41.0086L31.6562 40.3237C32.1334 39.9403 32.6448 39.5915 33.0794 39.1645C33.8654 38.3925 34.6501 37.6097 35.3537 36.7636C36.2691 35.6669 37.051 34.4653 37.6829 33.1842C38.1044 32.325 38.5018 31.4484 38.8304 30.5508C39.1201 29.7595 39.2997 28.9275 39.5279 28.1133L39.5879 27.9375C40.059 25.74 40.1383 23.52 39.9653 21.2859C39.8261 19.4854 39.4028 17.7478 38.814 16.0453ZM29.4859 39.6117C29.5581 39.2503 29.6476 38.8908 29.7128 38.5279C29.6476 38.8908 29.5586 39.2503 29.4859 39.6117ZM49.9098 48.2644C49.5226 47.5223 48.9545 46.9589 48.2036 46.589C47.5745 46.2797 46.8981 46.1437 46.2025 46.124C45.6812 46.109 45.1581 46.1358 44.6359 46.1423C44.1723 46.1479 43.7083 46.1559 43.2447 46.1517C42.6995 46.1461 42.1544 46.1297 41.6092 46.1142C41.5187 46.1114 41.4545 46.1297 41.4123 46.2215C41.3462 46.3645 41.2679 46.5023 41.1868 46.6589L41.2778 46.6879C41.5483 46.7358 41.8201 46.7765 42.0892 46.8304C42.4351 46.8994 42.5908 47.0981 42.6067 47.3897C42.6301 47.805 42.6395 48.2212 42.6381 48.6375C42.6311 50.2847 42.6193 51.9319 42.6072 53.5786C42.6062 53.6873 42.6043 53.8008 42.5748 53.9029C42.5406 54.0211 42.5036 54.1739 42.4154 54.232C42.2569 54.3338 42.0789 54.4017 41.8928 54.4312C41.6298 54.4744 41.5858 54.4861 41.5037 54.7448L41.4681 54.8742C41.4287 55.0153 41.4498 55.0429 41.597 55.0444C42.4417 55.0537 43.2859 55.072 44.1301 55.0692C44.9003 55.0664 45.6704 55.1133 46.4378 54.9684C47.1629 54.832 47.8398 54.5929 48.4576 54.1884C49.2592 53.6629 49.8358 52.9608 50.14 52.0444C50.3856 51.3042 50.4404 50.549 50.357 49.7751C50.3049 49.2478 50.1532 48.7351 49.9098 48.2644ZM48.43 52.7929C47.9781 53.6339 47.304 54.1954 46.3408 54.3436C45.7375 54.4359 45.1333 54.4092 44.5581 54.1809C44.1939 54.0365 44.0584 53.722 44.0472 53.3503C44.0369 52.986 44.0317 52.6216 44.0317 52.2572C44.0298 50.9756 44.0298 49.694 44.0317 48.4129C44.0326 48.0094 44.0397 47.6048 44.0462 47.2008C44.0509 46.9167 44.1104 46.8215 44.3875 46.7986C45.6044 46.6964 46.7654 46.8276 47.7297 47.684C48.3259 48.2137 48.6653 48.8892 48.8064 49.665C48.865 49.9884 48.8828 50.3194 48.9194 50.6475C48.8898 51.3965 48.7886 52.1254 48.43 52.7929ZM58.6436 51.405C58.4036 50.8209 57.9489 50.4548 57.3775 50.2204C57.1825 50.1403 56.9814 50.0742 56.7709 49.9964L56.8445 49.9495C57.0719 49.8037 57.325 49.6861 57.5209 49.5065C57.9972 49.0701 58.195 48.5212 58.1022 47.8692C58.014 47.249 57.7047 46.7939 57.152 46.4986C56.6504 46.2314 56.1095 46.1339 55.5498 46.1344C54.5814 46.1353 53.6125 46.1498 52.644 46.1517C52.3103 46.1522 51.9765 46.1273 51.6428 46.1226C51.5781 46.1217 51.482 46.1381 51.4543 46.1812C51.3779 46.2984 51.3273 46.4334 51.2729 46.5637C51.2415 46.6397 51.2725 46.6814 51.3592 46.6926C51.5922 46.7245 51.8247 46.7644 52.0581 46.799C52.3806 46.8473 52.5367 47.0151 52.5564 47.34L52.5606 47.5326C52.5611 48.5428 52.5644 49.5529 52.5601 50.5631C52.5541 51.5719 52.5446 52.5806 52.5315 53.5894C52.5301 53.7164 52.5128 53.8439 52.4945 53.97C52.4669 54.1603 52.3651 54.2915 52.1701 54.3328L51.6184 54.4415C51.5533 54.4547 51.459 54.4528 51.4323 54.4931C51.3311 54.6445 51.2495 54.81 51.2608 55.0097L51.3175 55.0251L53.1704 55.0706L53.5422 55.0692C54.1834 55.0617 54.8256 55.0744 55.4659 55.0415C56.1592 55.0069 56.8103 54.8011 57.4122 54.4472C58.0529 54.0698 58.5461 53.5725 58.7214 52.8244C58.8339 52.3467 58.8344 51.8662 58.6436 51.405ZM53.9359 47.1014C53.9387 46.8984 54.0283 46.8103 54.2298 46.8051C54.7262 46.7915 55.2194 46.7944 55.6984 46.9654C56.3181 47.1867 56.6992 47.7211 56.6922 48.374C56.6889 48.6248 56.6926 48.8733 56.6003 49.1142C56.4179 49.5886 56.0683 49.8389 55.5723 49.8876C55.3136 49.9139 55.0525 49.9167 54.8219 49.9289L54.0522 49.8951C53.95 49.8914 53.9054 49.8464 53.9059 49.7414L53.9359 47.1014ZM57.1262 53.4267C56.8783 53.9662 56.4264 54.2498 55.8606 54.3483C55.4097 54.4256 54.9474 54.4053 54.505 54.2887C54.174 54.2039 54.039 53.9381 53.9729 53.6433C53.9284 53.4459 53.9359 53.2111 53.9322 53.0058C53.9261 52.6889 53.9308 52.0312 53.9308 52.0312H53.9242C53.9242 51.5625 53.9256 51.1565 53.9228 50.707C53.9223 50.61 53.9387 50.5617 54.0573 50.5654C54.4783 50.5781 54.9006 50.5851 55.3215 50.6015C55.6979 50.6161 56.0504 50.7276 56.3819 50.9062C56.8862 51.1781 57.19 51.5944 57.2734 52.1662C57.3372 52.5998 57.31 53.0264 57.1262 53.4267ZM10.9136 53.932L10.9225 51.3834C10.9239 51 10.8751 50.624 10.7495 50.2603C10.4031 49.2586 9.44779 48.8025 8.4531 49.162C8.00076 49.3256 7.59529 49.5736 7.2081 49.8548C6.98263 50.0189 6.98263 50.0189 6.81951 49.785C6.35779 49.1231 5.69826 48.8967 4.93044 49.1409C4.43404 49.2984 3.99997 49.5679 3.58888 49.8811C3.55044 49.9101 3.4731 49.9425 3.45013 49.9251C3.41169 49.8965 3.38497 49.8286 3.38591 49.7775L3.41404 49.3247C3.41638 49.2295 3.3981 49.1339 3.38872 49.034C3.2031 49.0983 3.05497 49.1625 2.89982 49.2C2.42029 49.3172 1.93747 49.425 1.45513 49.5351C1.33841 49.5619 1.21513 49.597 1.20388 49.7311C1.19216 49.8628 1.31919 49.8848 1.41763 49.9242C1.62482 50.0076 1.8306 50.0962 2.03544 50.1862C2.20747 50.2622 2.27169 50.3995 2.27076 50.5842C2.26747 51.374 2.27263 52.1629 2.26794 52.9528C2.26607 53.2739 2.25107 53.5945 2.23654 53.9156C2.22341 54.2001 2.12638 54.3192 1.85076 54.3909C1.70451 54.4294 1.55591 54.4551 1.40872 54.4898C1.37638 54.4973 1.32107 54.5179 1.3206 54.5339C1.31451 54.6731 1.30701 54.8156 1.33044 54.9511C1.33513 54.9754 1.48232 54.9754 1.56388 54.9848L1.61872 54.9815C2.18685 54.9731 2.75497 54.9642 3.32357 54.9581C3.62497 54.9548 3.92591 54.9576 4.2531 54.9576L4.28826 54.5029C4.10076 54.4687 3.93341 54.4429 3.76841 54.4069C3.51107 54.3506 3.40138 54.2142 3.39482 53.9545L3.39013 53.5828C3.38732 52.6186 3.38357 51.6548 3.38357 50.6906C3.38357 50.5504 3.44169 50.4394 3.56497 50.3554C3.82607 50.1792 4.10169 50.039 4.40685 49.9608C5.04997 49.7962 5.60779 50.025 5.85529 50.572C5.93357 50.7445 5.99497 50.9353 6.01232 51.1228C6.10326 52.0894 6.06388 53.0569 6.00904 54.0234C5.99732 54.232 5.89935 54.337 5.69357 54.3881L5.20982 54.4903C5.17091 54.5001 5.11419 54.4739 5.11138 54.5062C5.1006 54.6398 5.10669 54.8447 5.10669 54.8447H5.22201L6.69482 54.8929C7.09841 54.892 7.50247 54.9408 7.9056 54.9511C7.97779 54.9525 8.04201 54.9633 8.04623 54.8798C8.05083 54.7503 8.04911 54.6206 8.04107 54.4912L7.96419 54.4776L7.54935 54.3844C7.26951 54.3183 7.17294 54.2119 7.17201 53.9287C7.16872 53.2308 7.1781 52.5333 7.17201 51.8358C7.16842 51.4368 7.15357 51.0381 7.12747 50.64C7.12044 50.534 7.13685 50.4647 7.22122 50.4051C7.46578 50.2264 7.74091 50.0937 8.0331 50.0137C8.94013 49.7747 9.68263 50.272 9.72951 51.2072C9.77544 52.109 9.75622 53.0142 9.74919 53.9179C9.74685 54.2325 9.64279 54.3276 9.33294 54.412L9.22607 54.4397C8.90872 54.5156 8.91154 54.5156 8.93029 54.8526C8.93638 54.9581 8.96544 54.9853 9.07794 54.9825C9.72435 54.9679 10.3708 54.9642 11.0172 54.9586C11.2815 54.9562 11.5459 54.9586 11.8337 54.9586L11.8923 54.5198C11.6397 54.4528 11.4067 54.4031 11.1817 54.3295C10.9829 54.262 10.9126 54.142 10.9136 53.932ZM33.174 50.069C33.4403 49.822 33.4422 49.4958 33.3676 49.1334C33.1567 49.3542 32.9204 49.4559 32.6509 49.4751C32.2895 49.5009 31.9347 49.4695 31.5981 49.3256C30.6878 48.9347 29.7915 48.9623 28.8981 49.3912C28.1467 49.7512 27.6845 50.3123 27.6381 51.1631C27.6086 51.7083 27.7108 52.2244 28.0745 52.6579C28.2925 52.9176 28.5723 53.0859 28.8878 53.2022C29.0237 53.2523 29.034 53.317 28.9201 53.4037C28.836 53.4673 28.7489 53.5267 28.659 53.5819C28.4686 53.7015 28.2771 53.8194 28.0844 53.9353C27.9714 54.0037 27.9329 54.0909 27.97 54.2245C28.0783 54.6173 28.3572 54.8442 28.7059 55.0097L28.8329 55.0983L28.7219 55.2094C28.3801 55.4864 28.0248 55.7479 27.6976 56.0419C27.4229 56.2889 27.3344 56.6198 27.4173 56.985C27.5847 57.7139 28.0679 58.1648 28.7537 58.372C29.9523 58.7348 31.0778 58.5267 32.1039 57.8165C32.7123 57.3951 33.1487 56.8467 33.2814 56.092C33.43 55.244 32.9589 54.5081 32.1156 54.3562C31.5578 54.255 30.9869 54.2259 30.4225 54.1612C30.159 54.1312 29.8919 54.1134 29.6354 54.0529C29.4175 54.0014 29.3092 53.8237 29.3294 53.6503C29.3495 53.4797 29.5309 53.3208 29.7386 53.3044C30.1567 53.2706 30.5664 53.2054 30.9517 53.0292C31.9726 52.5623 32.4465 51.7448 32.3279 50.6442C32.3125 50.4961 32.2787 50.3498 32.2483 50.1773C32.575 50.2322 32.9092 50.3151 33.174 50.069ZM30.0761 55.2333C30.4914 55.2454 30.9639 55.2712 31.4204 55.4048C31.8222 55.522 32.1526 55.7273 32.2501 56.1759C32.3678 56.7178 32.1072 57.2569 31.5826 57.5465C31.0914 57.8175 30.5579 57.84 30.017 57.7842C29.5539 57.7364 29.1372 57.5761 28.8034 57.2339C28.3637 56.7834 28.3614 56.16 28.8015 55.7109C29.1948 55.3097 29.4053 55.2267 30.0761 55.2333ZM31.1153 51.9698C30.8734 52.7437 30.1694 52.8506 29.6176 52.6031C29.1475 52.3926 28.9426 51.9783 28.8353 51.5053C28.7936 51.3234 28.7837 51.1345 28.7594 50.9484C28.7692 50.6817 28.8133 50.4258 28.9281 50.1858C29.2801 49.4465 30.145 49.4906 30.6236 49.8253C30.8289 49.9687 30.9719 50.1637 31.0614 50.3948C31.2607 50.8978 31.2797 51.4543 31.1153 51.9698ZM26.7231 54.4369C26.5556 54.4112 26.3901 54.3743 26.2276 54.3262C25.9426 54.239 25.9079 54.1856 25.9047 53.8842C25.8962 53.0442 25.8906 52.2042 25.8812 51.3647C25.8765 50.9869 25.8315 50.6142 25.7158 50.2533C25.4111 49.3017 24.4778 48.7908 23.544 49.0715C23.0265 49.2276 22.5822 49.5178 22.1683 49.8586L22.0173 49.9744L22.0178 49.8192C22.0276 49.6406 22.0469 49.462 22.0454 49.2834C22.0445 49.1901 22.0089 49.0964 21.9915 49.0144C21.6386 49.1208 21.3222 49.2276 20.9992 49.3092C20.6753 49.3908 20.3448 49.4461 20.0172 49.5126C19.8545 49.5454 19.735 49.6439 19.7378 49.7559C19.742 49.9139 19.8728 49.9444 19.9872 49.9917C20.1944 50.0765 20.4011 50.1623 20.6059 50.2533C20.7522 50.3184 20.8117 50.4394 20.8103 50.5964C20.8 51.6881 20.7934 52.7803 20.7775 53.8725C20.7728 54.2175 20.6856 54.3084 20.3462 54.3844L20.1981 54.4139C19.884 54.4678 19.8751 54.4804 19.8967 54.8119L19.8986 54.8667C19.8948 54.9942 19.9506 55.0354 20.0819 55.034C20.9162 55.0242 21.7511 55.0195 22.5854 55.0228C22.9431 55.0242 22.9815 54.9961 22.974 54.6286L22.9572 54.4706C22.7528 54.4364 22.5573 54.4115 22.3661 54.3694C22.1659 54.3248 22.0942 54.2428 22.0754 54.0394C22.0581 53.8533 22.0525 53.6644 22.0506 53.4769C22.0412 52.6186 22.0337 51.7603 22.0295 50.9025C22.0286 50.6864 22.0684 50.4858 22.2672 50.3465C22.5597 50.1375 22.9045 50.0138 23.2633 49.9894C24.0076 49.9383 24.5734 50.3794 24.6137 51.1214C24.6634 52.0369 24.6484 52.9556 24.6601 53.8729C24.6611 53.9414 24.6489 54.0103 24.6395 54.0783C24.6217 54.2123 24.5561 54.3131 24.4201 54.3478C24.2875 54.3825 24.1529 54.4134 24.0175 54.434C23.8154 54.464 23.8112 54.4626 23.7958 54.6665L23.8009 54.8039C23.8248 55.0411 23.8253 55.034 24.0653 55.0317C24.8725 55.0251 25.6792 55.0209 26.4859 55.0219C26.8234 55.0228 26.8473 55.0069 26.8501 54.659L26.8492 54.5765C26.8544 54.4875 26.8145 54.4514 26.7231 54.4369ZM37.9975 49.1292C37.1514 48.9225 36.3489 49.0762 35.5867 49.4704C34.8461 49.8534 34.3511 50.4454 34.1626 51.2629C33.9723 52.0894 34.0633 52.8956 34.4284 53.6629C34.6661 54.1612 35.0317 54.5465 35.5295 54.7969C36.6948 55.3837 38.1203 55.1175 39.0344 54.3323C39.7558 53.7131 40.0206 52.8886 40.0365 51.8681C40.0267 51.7659 40.0168 51.569 39.9897 51.374C39.8364 50.2631 39.0672 49.3908 37.9975 49.1292ZM38.6383 53.4206C38.4137 54.3047 37.6492 54.6975 36.7867 54.3937C36.3465 54.239 36.0175 53.9433 35.7962 53.5434C35.2872 52.6247 35.1892 51.6478 35.4789 50.6456C35.672 49.9781 36.2214 49.6129 36.8748 49.6589C37.4589 49.6997 37.9079 49.98 38.2375 50.4553C38.5848 50.9569 38.7189 51.5273 38.7545 52.1264C38.7606 52.2225 38.7554 52.3186 38.7554 52.4151L38.7967 52.4198C38.7451 52.754 38.7208 53.0948 38.6383 53.4206ZM16.7176 49.1147C15.8275 48.9112 14.9936 49.1123 14.2211 49.5647C13.5531 49.9556 13.1214 50.5397 12.9559 51.3028C12.8008 52.0158 12.864 52.7165 13.1167 53.3995C13.2704 53.8158 13.5034 54.1819 13.8451 54.4673C14.5647 55.0678 15.4056 55.2197 16.3004 55.0523C17.0579 54.9103 17.7236 54.5737 18.2073 53.9442C18.6601 53.3554 18.8326 52.6795 18.8504 51.9469C18.8237 51.7148 18.8172 51.4786 18.7679 51.2522C18.5233 50.122 17.8623 49.3758 16.7176 49.1147ZM17.4437 53.4178C17.2267 54.2972 16.45 54.6998 15.5936 54.3961C15.0437 54.2006 14.6856 53.7979 14.4592 53.2819C14.0964 52.4526 14.0223 51.5897 14.2572 50.715C14.4372 50.0461 14.9795 49.5534 15.8097 49.6715C16.3192 49.7437 16.7167 50.0039 17.0129 50.4178C17.4133 50.9761 17.545 51.6154 17.5633 52.2872V52.4245L17.597 52.4297C17.5478 52.7597 17.5234 53.0953 17.4437 53.4178Z" fill="#EFEEEE"/>
</svg>
