<svg width="69" height="100" viewBox="0 0 69 100" fill="none" xmlns="http://www.w3.org/2000/svg">
<g clip-path="url(#clip0_904_4)">
<path d="M43.5297 0.235332C43.1056 0.533892 42.3422 1.14857 41.6213 1.77379C40.2464 2.96101 39.787 3.35089 38.6348 4.28521C37.9739 4.82613 36.8536 5.74991 36.1432 6.34C33.6515 8.41236 32.3686 9.45908 30.6015 10.8676C29.3822 11.837 28.647 12.4412 26.5512 14.2044C25.7348 14.8894 24.7382 15.7183 24.3388 16.0485C21.9567 18.0084 21.9956 17.9733 21.879 18.2297C21.7235 18.5669 21.7058 18.8163 21.7906 19.589C21.8295 19.9614 21.9037 20.7973 21.9532 21.4436C21.9991 22.0899 22.0628 22.9294 22.091 23.3052C22.1228 23.6811 22.1546 24.1482 22.1652 24.3414C22.1758 24.5346 22.2253 24.8613 22.2713 25.0685C22.3207 25.2722 22.3596 25.4759 22.3596 25.5181C22.3596 25.5918 22.3632 25.5883 22.4763 25.4935C23.2997 24.8051 24.2717 24.0077 25.3461 23.1472C26.7562 22.0162 28.0674 20.9378 28.6364 20.4391C28.8308 20.2669 29.262 19.8911 29.5907 19.6031C30.7216 18.6126 31.9233 17.6291 34.6941 15.4197C36.8465 13.7021 37.4473 13.2139 40.3489 10.7833C41.6425 9.70144 43.0491 8.52827 43.4803 8.17702C44.4098 7.41833 44.6006 7.22163 44.6819 6.94766C44.7385 6.75799 44.7349 6.7334 44.6324 6.09764C44.5723 5.73937 44.5123 5.33192 44.5017 5.19845C44.4911 5.06146 44.4416 4.63997 44.3921 4.26062C44.3462 3.88128 44.2755 3.25606 44.2366 2.8732C44.1977 2.49034 44.1094 1.83702 44.0422 1.42255C43.9751 1.00808 43.9044 0.523354 43.8796 0.351244C43.8584 0.175619 43.8372 0.0316086 43.8337 0.0280972C43.8302 0.0245838 43.6923 0.115908 43.5297 0.235332Z" fill="#6A2BB4"/>
<path d="M44.9011 10.836C44.2473 11.2715 42.0984 13.0242 39.0236 15.6305C37.1858 17.1865 36.1609 18.033 33.5774 20.1335C32.4075 21.0818 30.5379 22.6168 29.4246 23.5406C27.2299 25.36 26.4523 25.9993 25.2224 26.9828C24.7842 27.334 24.2293 27.7977 23.9854 28.0119C23.7416 28.2262 23.3846 28.5213 23.1902 28.6688C22.8297 28.9357 22.6707 29.1184 22.6071 29.3432C22.5293 29.6031 22.5293 29.9579 22.6 30.5409C22.6424 30.8606 22.6848 31.3242 22.6954 31.5771C22.7096 31.8265 22.7732 32.6589 22.8403 33.4211C22.904 34.1834 22.9817 35.1985 23.01 35.6726C23.0418 36.2452 23.0736 36.5683 23.1054 36.6386C23.1761 36.7861 23.2927 36.7861 23.5401 36.6351C23.7911 36.484 23.9819 36.326 25.5193 34.9877C26.9259 33.7654 27.4631 33.3158 29.2691 31.8581C30.492 30.8711 31.4144 30.1159 35.8605 26.4629C36.6486 25.8167 37.9846 24.7278 38.8293 24.0429C41.4199 21.9459 42.261 21.2504 43.5651 20.1265C44.2755 19.5118 44.8976 18.9954 45.3782 18.6266C45.7246 18.3597 45.8765 18.1735 45.9508 17.9206C46.0214 17.6818 46.0179 17.4921 45.9331 16.9933C45.8942 16.765 45.8129 16.1925 45.7564 15.7183C45.6998 15.2441 45.5655 14.2641 45.4595 13.5406C45.3535 12.817 45.2404 11.9705 45.2086 11.6614C45.1768 11.3523 45.1414 11.0081 45.1273 10.8992L45.1025 10.699L44.9011 10.836Z" fill="#6A2BB4"/>
<path d="M46.0746 21.9986C45.0602 22.6765 43.3108 24.1131 38.8223 27.9522C37.398 29.1675 36.0373 30.281 32.8176 32.8626C29.3576 35.634 27.5693 37.1022 26.1414 38.3386C25.2791 39.0867 25.2048 39.1465 24.551 39.6277C23.8618 40.1335 23.671 40.3266 23.5579 40.6182C23.4519 40.8957 23.4307 41.426 23.5049 42.0267C23.6462 43.2069 23.6639 43.4352 23.6993 44.3273C23.724 44.8718 23.777 45.5813 23.8265 45.9958C23.9007 46.6069 24.0315 47.9347 24.0633 48.3948L24.0739 48.5283L27.2901 45.8869C31.7503 42.2234 35.7722 38.9322 37.5924 37.457C38.4371 36.772 39.8295 35.641 40.6848 34.9491C42.5403 33.4422 44.212 32.0618 45.4313 31.0221C45.9226 30.6041 46.4845 30.137 46.6789 29.9894C46.8733 29.8384 47.0747 29.6523 47.1313 29.568C47.3363 29.2624 47.3575 28.883 47.209 28.1314C47.1702 27.9382 46.9793 26.477 46.7849 24.8823C46.587 23.2912 46.4138 21.9459 46.3997 21.8932L46.375 21.7984L46.0746 21.9986Z" fill="#6A2BB4"/>
<path d="M6.19057 34.3063C6.17997 34.3309 6.03153 34.8015 5.85482 35.353C5.44484 36.621 5.11616 37.6256 3.78728 41.6052C3.19707 43.372 2.47608 45.5602 2.18274 46.47C1.89293 47.3762 1.52183 48.4931 1.36633 48.9463C0.931615 50.1862 0.899807 50.295 0.899807 50.6147C0.896273 50.98 0.952821 51.117 1.36986 51.7773C1.72682 52.3323 1.87172 52.5782 2.38419 53.516C2.5609 53.8391 2.89665 54.4222 3.12638 54.8156C4.33156 56.8704 5.45898 58.8339 7.95769 63.242C10.5872 67.8855 11.4849 69.445 13.4817 72.8486C14.5809 74.7278 16.8781 78.7215 18.9492 82.3674C21.2358 86.3892 22.1017 87.9031 25.4487 93.7443C27.0779 96.5824 28.5128 99.0973 28.6401 99.3291C28.7673 99.5645 28.8981 99.7822 28.9299 99.8209C29.0819 99.993 28.8133 99.9824 34.5493 99.993L39.9179 100L40.1052 99.7014C41.2008 97.9487 42.0985 96.3962 43.954 93.0453C45.0743 91.0221 45.4701 90.3267 46.8591 87.9417C48.0042 85.9747 48.2304 85.5778 49.7572 82.8416C52.3549 78.1911 54.744 74.0323 57.4548 69.4415C58.6529 67.4113 58.9992 66.8072 60.2822 64.5416C61.6181 62.1812 62.0528 61.4261 63.311 59.308C65.2442 56.0485 66.043 54.654 67.0326 52.7924C67.3082 52.2691 67.6051 51.7246 67.6864 51.5806C67.9409 51.1345 68.0575 50.8851 68.0928 50.713C68.1388 50.5093 68.0893 50.3161 67.796 49.4907C67.6829 49.1816 67.4567 48.4931 67.2941 47.9628C67.128 47.4324 66.718 46.1679 66.3787 45.1528C66.043 44.1377 65.4316 42.241 65.0181 40.9378C64.184 38.2894 63.4701 36.1328 63.053 35.0088L62.7773 34.2641H57.3593C54.38 34.2641 51.9413 34.2782 51.9413 34.2922C51.9413 34.373 52.2453 35.497 52.4467 36.1609C52.7719 37.2216 53.0723 38.1314 53.9735 40.7446C54.9773 43.6495 55.1999 44.3238 55.5498 45.4689C55.7089 45.9782 55.9032 46.5718 55.9881 46.7861C56.2036 47.3375 56.2355 47.5272 56.1683 47.7626C56.1365 47.8679 56.0305 48.0752 55.9315 48.2297C55.1787 49.3678 54.6698 50.2248 53.3268 52.5992C52.2453 54.5135 50.3827 57.7099 48.8135 60.3442C48.4778 60.9027 47.0005 63.4317 45.5267 65.9642C40.9004 73.9094 40.1688 75.1633 38.4582 78.0822C35.4718 83.1718 34.5705 84.6681 34.4822 84.6681C34.3691 84.6681 31.4321 79.712 28.1029 73.9024C27.5833 72.9926 26.926 71.8476 26.6432 71.3558C25.9753 70.1897 24.8796 68.3246 23.2362 65.5602C21.4974 62.6379 21.1404 62.0267 19.7444 59.6066C18.3625 57.2111 18.0586 56.6913 17.1255 55.1423C16.4964 54.092 16.1465 53.4879 14.8565 51.2294C14.3723 50.3758 13.8846 49.5645 13.4959 48.9463C12.9551 48.0962 12.8668 47.8469 12.895 47.2251C12.9127 46.8915 12.9304 46.8072 13.1 46.3295C13.457 45.3214 15.7896 38.3843 16.196 37.1268C16.6343 35.771 16.9735 34.6365 17.0089 34.4046L17.0336 34.2641H11.6192C7.32153 34.2641 6.20117 34.2747 6.19057 34.3063Z" fill="url(#paint0_linear_904_4)"/>
</g>
<defs>
<linearGradient id="paint0_linear_904_4" x1="34.5037" y1="100" x2="34.5037" y2="34.2641" gradientUnits="userSpaceOnUse">
<stop stop-color="#120E21"/>
<stop offset="0.56" stop-color="#6F2DBD"/>
</linearGradient>
<clipPath id="clip0_904_4">
<rect width="67.2566" height="100" fill="white" transform="translate(0.871582)"/>
</clipPath>
</defs>
</svg>
