<svg width="145" height="30" viewBox="0 0 145 30" fill="none" xmlns="http://www.w3.org/2000/svg">
<path d="M43.8446 20.304C42.7886 20.304 41.882 20.1173 41.1246 19.744C40.3673 19.3707 39.7486 18.8853 39.2686 18.288C38.7993 17.6907 38.4526 17.04 38.2286 16.336C38.0046 15.632 37.8926 14.9547 37.8926 14.304V13.952C37.8926 13.2267 38.0046 12.512 38.2286 11.808C38.4633 11.104 38.8206 10.464 39.3006 9.888C39.7806 9.312 40.3886 8.85333 41.1246 8.512C41.8713 8.16 42.7513 7.984 43.7646 7.984C44.8206 7.984 45.738 8.176 46.5166 8.56C47.306 8.93333 47.9353 9.46667 48.4046 10.16C48.874 10.8427 49.1566 11.6427 49.2526 12.56H46.9646C46.8793 12.0267 46.6873 11.5787 46.3886 11.216C46.1006 10.8427 45.7326 10.5653 45.2846 10.384C44.8366 10.192 44.33 10.096 43.7646 10.096C43.1886 10.096 42.6766 10.1973 42.2286 10.4C41.7806 10.592 41.4073 10.8693 41.1086 11.232C40.81 11.5947 40.5806 12.0213 40.4206 12.512C40.2713 13.0027 40.1966 13.5467 40.1966 14.144C40.1966 14.72 40.2713 15.2533 40.4206 15.744C40.5806 16.2347 40.8153 16.6667 41.1246 17.04C41.434 17.4027 41.8126 17.6853 42.2606 17.888C42.7193 18.0907 43.2473 18.192 43.8446 18.192C44.7193 18.192 45.4553 17.9787 46.0526 17.552C46.6606 17.1147 47.0286 16.5067 47.1566 15.728H49.4446C49.338 16.56 49.0553 17.3227 48.5966 18.016C48.138 18.7093 47.5086 19.264 46.7086 19.68C45.9086 20.096 44.954 20.304 43.8446 20.304ZM56.4499 20V17.424H56.0819V14.56C56.0819 14.0587 55.9592 13.6853 55.7139 13.44C55.4685 13.1947 55.0899 13.072 54.5779 13.072C54.3112 13.072 53.9912 13.0773 53.6179 13.088C53.2445 13.0987 52.8659 13.1147 52.4819 13.136C52.1085 13.1467 51.7725 13.1627 51.4739 13.184V11.296C51.7192 11.2747 51.9965 11.2533 52.3059 11.232C52.6152 11.2107 52.9299 11.2 53.2499 11.2C53.5805 11.1893 53.8899 11.184 54.1779 11.184C55.0739 11.184 55.8152 11.3013 56.4019 11.536C56.9992 11.7707 57.4472 12.1387 57.7459 12.64C58.0552 13.1413 58.2099 13.7973 58.2099 14.608V20H56.4499ZM53.6499 20.224C53.0205 20.224 52.4659 20.112 51.9859 19.888C51.5165 19.664 51.1485 19.344 50.8819 18.928C50.6259 18.512 50.4979 18.0107 50.4979 17.424C50.4979 16.784 50.6525 16.2613 50.9619 15.856C51.2819 15.4507 51.7245 15.1467 52.2899 14.944C52.8659 14.7413 53.5379 14.64 54.3059 14.64H56.3219V15.968H54.2739C53.7619 15.968 53.3672 16.096 53.0899 16.352C52.8232 16.5973 52.6899 16.9173 52.6899 17.312C52.6899 17.7067 52.8232 18.0267 53.0899 18.272C53.3672 18.5173 53.7619 18.64 54.2739 18.64C54.5832 18.64 54.8659 18.5867 55.1219 18.48C55.3885 18.3627 55.6072 18.1707 55.7779 17.904C55.9592 17.6267 56.0605 17.2533 56.0819 16.784L56.6259 17.408C56.5725 18.016 56.4232 18.528 56.1779 18.944C55.9432 19.36 55.6125 19.68 55.1859 19.904C54.7699 20.1173 54.2579 20.224 53.6499 20.224ZM63.7441 20.272C62.5495 20.272 61.6108 20.0213 60.9281 19.52C60.2561 19.008 59.9041 18.304 59.8721 17.408H61.8721C61.9041 17.7067 62.0695 17.9787 62.3681 18.224C62.6668 18.4693 63.1361 18.592 63.7761 18.592C64.3095 18.592 64.7308 18.496 65.0401 18.304C65.3601 18.112 65.5201 17.8507 65.5201 17.52C65.5201 17.232 65.3975 17.0027 65.1521 16.832C64.9175 16.6613 64.5121 16.5493 63.9361 16.496L63.1681 16.416C62.1975 16.3093 61.4508 16.032 60.9281 15.584C60.4055 15.136 60.1441 14.5387 60.1441 13.792C60.1441 13.1947 60.2935 12.6933 60.5921 12.288C60.8908 11.8827 61.3015 11.5787 61.8241 11.376C62.3575 11.1627 62.9655 11.056 63.6481 11.056C64.7148 11.056 65.5788 11.2907 66.2401 11.76C66.9015 12.2293 67.2481 12.9173 67.2801 13.824H65.2801C65.2588 13.5253 65.1095 13.2693 64.8321 13.056C64.5548 12.8427 64.1548 12.736 63.6321 12.736C63.1628 12.736 62.8001 12.8267 62.5441 13.008C62.2881 13.1893 62.1601 13.424 62.1601 13.712C62.1601 13.9893 62.2615 14.2027 62.4641 14.352C62.6775 14.5013 63.0188 14.6027 63.4881 14.656L64.2561 14.736C65.2801 14.8427 66.0801 15.1253 66.6561 15.584C67.2428 16.0427 67.5361 16.6613 67.5361 17.44C67.5361 18.016 67.3761 18.5173 67.0561 18.944C66.7468 19.36 66.3095 19.6853 65.7441 19.92C65.1788 20.1547 64.5121 20.272 63.7441 20.272ZM69.3734 20V8.32H71.5974V15.136H71.2134C71.2134 14.2613 71.3254 13.52 71.5494 12.912C71.7734 12.304 72.104 11.84 72.5414 11.52C72.9894 11.2 73.5547 11.04 74.2374 11.04H74.3334C75.3254 11.04 76.0774 11.3813 76.5894 12.064C77.1014 12.7467 77.3574 13.7387 77.3574 15.04V20H75.1334V14.832C75.1334 14.2773 74.9734 13.84 74.6534 13.52C74.344 13.2 73.9334 13.04 73.4214 13.04C72.8774 13.04 72.4347 13.2213 72.0934 13.584C71.7627 13.936 71.5974 14.4 71.5974 14.976V20H69.3734ZM83.1084 20.096C82.5217 20.096 82.015 20.0107 81.5884 19.84C81.1617 19.6693 80.831 19.3813 80.5964 18.976C80.3617 18.56 80.2444 18.0053 80.2444 17.312V8.864H81.3964V17.488C81.3964 17.9787 81.5297 18.3573 81.7964 18.624C82.063 18.88 82.4417 19.008 82.9324 19.008H84.4524V20.096H83.1084ZM78.7244 12.448V11.536H84.4524V12.448H78.7244ZM86.7708 20V11.536H87.7308V15.072H87.6348C87.6348 13.8347 87.9068 12.9227 88.4508 12.336C88.9948 11.7387 89.8481 11.44 91.0108 11.44H91.2828V12.528H90.7868C89.8694 12.528 89.1708 12.768 88.6908 13.248C88.2108 13.7173 87.9708 14.4107 87.9708 15.328V20H86.7708ZM98.3446 20V17.456H98.1526V14.448C98.1526 13.8187 97.9873 13.3387 97.6566 13.008C97.326 12.6667 96.814 12.496 96.1206 12.496C95.8006 12.496 95.4753 12.5013 95.1446 12.512C94.8246 12.5227 94.5153 12.5387 94.2166 12.56C93.9286 12.5707 93.6726 12.5867 93.4486 12.608V11.552C93.6833 11.5307 93.9233 11.5093 94.1686 11.488C94.414 11.4667 94.6646 11.456 94.9206 11.456C95.1873 11.4453 95.4433 11.44 95.6886 11.44C96.5526 11.44 97.246 11.5467 97.7686 11.76C98.302 11.9733 98.6913 12.3093 98.9366 12.768C99.182 13.216 99.3046 13.8133 99.3046 14.56V20H98.3446ZM95.4806 20.224C94.8833 20.224 94.3553 20.1173 93.8966 19.904C93.438 19.6907 93.0806 19.3813 92.8246 18.976C92.5793 18.5707 92.4566 18.08 92.4566 17.504C92.4566 16.9387 92.5846 16.4587 92.8406 16.064C93.1073 15.6693 93.486 15.3707 93.9766 15.168C94.478 14.9547 95.0806 14.848 95.7846 14.848H98.2646V15.76H95.7046C95.0326 15.76 94.5153 15.9253 94.1526 16.256C93.8006 16.576 93.6246 16.9973 93.6246 17.52C93.6246 18.0533 93.8113 18.48 94.1846 18.8C94.558 19.1093 95.0646 19.264 95.7046 19.264C96.0993 19.264 96.478 19.1947 96.8406 19.056C97.2033 18.9067 97.5073 18.6613 97.7526 18.32C97.998 17.968 98.1313 17.488 98.1526 16.88L98.5046 17.376C98.462 18.0053 98.3126 18.5333 98.0566 18.96C97.8006 19.376 97.454 19.6907 97.0166 19.904C96.5793 20.1173 96.0673 20.224 95.4806 20.224ZM105.87 20.272C105.155 20.272 104.531 20.1493 103.998 19.904C103.475 19.648 103.038 19.3067 102.686 18.88C102.334 18.4427 102.067 17.9627 101.886 17.44C101.715 16.9173 101.63 16.3893 101.63 15.856V15.632C101.63 15.088 101.715 14.56 101.886 14.048C102.067 13.5253 102.334 13.056 102.686 12.64C103.038 12.2133 103.475 11.8773 103.998 11.632C104.531 11.376 105.145 11.248 105.838 11.248C106.542 11.248 107.166 11.376 107.71 11.632C108.265 11.888 108.713 12.2507 109.054 12.72C109.395 13.1893 109.598 13.744 109.662 14.384H108.51C108.414 13.7973 108.137 13.312 107.678 12.928C107.23 12.5333 106.617 12.336 105.838 12.336C105.166 12.336 104.606 12.4907 104.158 12.8C103.721 13.0987 103.39 13.5093 103.166 14.032C102.942 14.544 102.83 15.1147 102.83 15.744C102.83 16.3627 102.942 16.9387 103.166 17.472C103.39 17.9947 103.726 18.416 104.174 18.736C104.622 19.0453 105.187 19.2 105.87 19.2C106.393 19.2 106.846 19.1093 107.23 18.928C107.625 18.736 107.939 18.48 108.174 18.16C108.419 17.84 108.563 17.488 108.606 17.104H109.758C109.715 17.744 109.513 18.304 109.15 18.784C108.798 19.2533 108.339 19.6213 107.774 19.888C107.209 20.144 106.574 20.272 105.87 20.272ZM117.718 20L114.31 16.032H112.934L116.95 11.536H118.23L114.63 15.552L114.71 14.896L119.126 20H117.718ZM111.958 20V8.32H113.158V20H111.958ZM121.188 20V11.536H122.372V20H121.188ZM119.828 12.496V11.536H122.372V12.496H119.828ZM121.444 9.968C121.156 9.968 120.937 9.89333 120.788 9.744C120.649 9.584 120.58 9.38667 120.58 9.152C120.58 8.91733 120.649 8.72533 120.788 8.576C120.937 8.416 121.156 8.336 121.444 8.336C121.732 8.336 121.945 8.416 122.084 8.576C122.222 8.72533 122.292 8.91733 122.292 9.152C122.292 9.38667 122.222 9.584 122.084 9.744C121.945 9.89333 121.732 9.968 121.444 9.968ZM125.521 20V11.536H126.481V15.088H126.289C126.289 14.2987 126.406 13.6213 126.641 13.056C126.875 12.4907 127.227 12.0533 127.697 11.744C128.166 11.4347 128.758 11.28 129.473 11.28H129.521C130.587 11.28 131.382 11.616 131.905 12.288C132.427 12.9493 132.689 13.8827 132.689 15.088V20H131.505V14.832C131.505 14.096 131.302 13.504 130.897 13.056C130.491 12.608 129.926 12.384 129.201 12.384C128.454 12.384 127.851 12.6187 127.393 13.088C126.945 13.5467 126.721 14.1547 126.721 14.912V20H125.521ZM138.909 23.312C138.514 23.312 138.114 23.2907 137.709 23.248C137.314 23.216 136.936 23.1733 136.573 23.12V22.096C136.957 22.1493 137.357 22.192 137.773 22.224C138.2 22.2667 138.6 22.288 138.973 22.288C139.784 22.288 140.429 22.1813 140.909 21.968C141.389 21.7547 141.73 21.4133 141.933 20.944C142.146 20.4853 142.253 19.8773 142.253 19.12V17.424L142.701 16.24C142.68 17.0507 142.509 17.7493 142.189 18.336C141.869 18.912 141.437 19.3547 140.893 19.664C140.349 19.9733 139.73 20.128 139.037 20.128C138.429 20.128 137.874 20.0107 137.373 19.776C136.882 19.5413 136.461 19.2213 136.109 18.816C135.757 18.4 135.485 17.9307 135.293 17.408C135.101 16.8853 135.005 16.336 135.005 15.76V15.536C135.005 14.9707 135.101 14.432 135.293 13.92C135.485 13.3973 135.757 12.9387 136.109 12.544C136.461 12.1387 136.888 11.824 137.389 11.6C137.901 11.3653 138.466 11.248 139.085 11.248C139.832 11.248 140.482 11.4133 141.037 11.744C141.592 12.0747 142.024 12.5333 142.333 13.12C142.653 13.7067 142.824 14.3947 142.845 15.184L142.461 14.976V11.536H143.405V19.072C143.405 20.0853 143.256 20.9013 142.957 21.52C142.658 22.1387 142.178 22.592 141.517 22.88C140.866 23.168 139.997 23.312 138.909 23.312ZM139.245 19.024C139.821 19.024 140.333 18.9013 140.781 18.656C141.24 18.4 141.602 18.0427 141.869 17.584C142.136 17.1253 142.269 16.592 142.269 15.984V15.2C142.269 14.6133 142.13 14.1013 141.853 13.664C141.586 13.2267 141.229 12.8853 140.781 12.64C140.333 12.3947 139.821 12.272 139.245 12.272C138.626 12.272 138.088 12.4213 137.629 12.72C137.17 13.0187 136.818 13.424 136.573 13.936C136.328 14.4373 136.205 15.008 136.205 15.648C136.205 16.2987 136.328 16.88 136.573 17.392C136.829 17.904 137.186 18.304 137.645 18.592C138.104 18.88 138.637 19.024 139.245 19.024Z" fill="#A35FFA"/>
<path d="M15 9V11" stroke="#A35FFA" stroke-miterlimit="10" stroke-linecap="round" stroke-linejoin="round"/>
<path d="M15 19V21" stroke="#A35FFA" stroke-miterlimit="10" stroke-linecap="round" stroke-linejoin="round"/>
<path d="M13 19H16C17.1 19 18 18.1 18 17C18 15.9 17.1 15 16 15H14C12.9 15 12 14.1 12 13C12 11.9 12.9 11 14 11H17" stroke="#A35FFA" stroke-miterlimit="10" stroke-linecap="round" stroke-linejoin="round"/>
<path d="M15 5C20.5 5 25 9.5 25 15C25 20.5 20.5 25 15 25C9.5 25 5 20.5 5 15V12" stroke="#A35FFA" stroke-miterlimit="10" stroke-linecap="round" stroke-linejoin="round"/>
<path d="M9 16L5 12L1 16" stroke="#A35FFA" stroke-miterlimit="10" stroke-linecap="round" stroke-linejoin="round"/>
<path d="M15 1C22.7 1 29 7.3 29 15C29 22.7 22.7 29 15 29" stroke="#A35FFA" stroke-miterlimit="10" stroke-linecap="round" stroke-linejoin="round"/>
</svg>
