<svg width="120" height="54" viewBox="0 0 120 54" fill="none" xmlns="http://www.w3.org/2000/svg">
<g filter="url(#filter0_i_288_112)">
<path d="M66.9452 23.6978C66.9452 24.7405 66.7007 25.6979 66.2117 26.5697C65.7226 27.4245 64.9715 28.117 63.9585 28.6468C62.9456 29.1769 61.6881 29.4418 60.1861 29.4418H57.4091V35.9042H52.9292V17.9021H60.1861C61.6532 17.9021 62.8931 18.15 63.9061 18.6459C64.919 19.1417 65.6789 19.8254 66.1853 20.6974C66.6919 21.5692 66.9452 22.5692 66.9452 23.6978ZM59.8454 25.9544C60.7013 25.9544 61.3386 25.7577 61.7579 25.3646C62.1771 24.9714 62.3868 24.4157 62.3868 23.6978C62.3868 22.9797 62.1771 22.424 61.7579 22.0308C61.3386 21.6376 60.7013 21.4409 59.8454 21.4409H57.4091V25.9544H59.8454ZM80.726 32.7244H73.8622L72.7619 35.9042H68.0721L74.7268 17.9021H79.9139L86.5683 35.9042H81.8263L80.726 32.7244ZM79.5734 29.3394L77.2942 22.749L75.0411 29.3394H79.5734ZM101.824 17.9021V21.4153H96.9507V35.9042H92.4708V21.4153H87.598V17.9021H101.824ZM120 17.9021V35.9042H115.52V28.493H108.551V35.9042H104.072V17.9021H108.551V24.9542H115.52V17.9021H120Z" fill="white"/>
</g>
<g filter="url(#filter1_i_288_112)">
<path d="M21.832 52.3695C33.8894 52.3695 43.6637 42.8021 43.6637 30.9997C43.6637 19.1975 33.8894 9.62982 21.832 9.62982C9.77463 9.62982 0 19.1975 0 30.9997C0 42.8021 9.77463 52.3695 21.832 52.3695Z" fill="white"/>
</g>
<path d="M6.99283 33.9684C6.99283 33.9684 6.02958 36.3678 5.88197 37.5998C5.73435 38.8317 6.54999 41.0864 7.29208 41.5237C8.03391 41.9609 10.4811 41.014 10.8541 40.4323C11.2269 39.8505 12.9283 36.0748 12.9283 36.0748C10.7924 35.9074 8.7421 35.1799 6.99283 33.9684Z" fill="white" stroke="#263238" stroke-linecap="round" stroke-linejoin="round"/>
<path d="M30.4669 35.4363L27.5417 48.1322H29.4492L32.2498 35.1854L30.4669 35.4363Z" fill="#263238" stroke="#263238" stroke-linecap="round" stroke-linejoin="round"/>
<path d="M32.848 25.4327C32.848 25.4327 34.2466 25.1856 34.6272 25.4327C35.0078 25.6797 35.0155 26.9269 35.0155 27.425C35.0155 27.923 34.6272 29.2919 34.763 29.9155C34.8991 30.5391 37.055 33.4821 37.9445 35.3527C38.8342 37.2236 37.6919 40.2045 36.6742 41.4365C35.6565 42.6684 33.6172 38.2426 32.9801 36.7482C32.3429 35.254 31.3292 26.0408 31.3292 26.0408L32.848 25.4327Z" fill="white" stroke="#263238" stroke-linecap="round" stroke-linejoin="round"/>
<path d="M35.5672 33.1818C35.5672 33.1818 37.587 36.5618 37.6609 37.6532C37.7347 38.7443 37.2142 41.0753 36.6976 41.8661C36.181 42.6569 34.8446 41.9764 33.8774 41.4668C32.9819 41.0275 32.2725 40.2939 31.873 39.3945C31.4262 38.4516 30.226 36.0866 30.226 36.0866C30.226 36.0866 33.4928 35.2158 35.5672 33.1818Z" fill="white" stroke="#263238" stroke-linecap="round" stroke-linejoin="round"/>
<path d="M17.3799 19.0216C16.4455 19.2361 15.547 19.579 14.711 20.0406C13.4488 20.7669 11.4442 22.2195 10.7762 23.3791C10.1079 24.5389 8.1076 29.5541 7.14033 31.4437C6.17306 33.3335 5.88159 33.9837 5.88159 33.9837C5.88159 33.9837 7.04694 35.6566 8.62425 36.3108C10.2013 36.9647 12.9281 37.1092 12.9281 37.1092C12.9281 37.1092 13.3165 44.516 13.5226 45.6074C13.7285 46.6985 16.2688 47.3487 19.9784 47.5085C23.6884 47.6683 28.8819 46.3487 29.55 45.6074C30.218 44.8658 29.3285 37.1092 29.3285 37.1092C30.5353 36.9351 31.7265 36.668 32.8906 36.3108C34.3745 35.8011 36.305 33.3298 36.305 33.3298C36.305 33.3298 33.6324 26.9381 33.112 25.8506C32.5914 24.7632 32.9644 24.3296 30.8863 22.8734C29.5595 21.9595 28.1424 21.1786 26.6559 20.5426C26.6559 20.5426 23.5483 19.0901 20.9419 18.801C18.3354 18.5122 17.3799 19.0216 17.3799 19.0216Z" fill="white" stroke="#263238" stroke-linecap="round" stroke-linejoin="round"/>
<path d="M28.14 9.13594C28.14 9.13594 28.9559 9.57319 28.9559 10.0104C28.9559 10.4477 28.0662 11.3906 28.0662 11.3906C28.1458 12.0652 28.1458 12.7464 28.0662 13.421C27.9186 14.1473 28.6607 14.942 28.0662 15.4553C27.472 15.9686 25.6928 15.9647 25.6928 15.9647L25.1722 19.1625L18.4949 18.288L18.2735 16.2537C18.2735 16.2537 16.4903 14.8012 15.8961 13.212C15.3016 11.6225 15.3795 11.1776 15.5077 10.17C15.6358 9.16253 16.7702 7.04451 19.0038 6.53882C20.9579 6.08188 22.9974 6.10674 24.9392 6.6112C26.5085 7.02185 28.14 9.13594 28.14 9.13594Z" fill="white" stroke="#263238" stroke-linecap="round" stroke-linejoin="round"/>
<path d="M25.1643 14.1576V14.1397V14.1576Z" fill="white" stroke="#263238" stroke-linecap="round" stroke-linejoin="round"/>
<path d="M23.2456 15.8127C24.0577 15.489 24.7337 14.9062 25.1645 14.1585C25.1374 14.2117 25.0207 14.3602 24.6557 14.3602C24.2091 14.3602 23.168 13.5618 22.8728 12.8392C22.5775 12.1168 23.3194 11.2384 23.836 11.2384C24.3527 11.2384 25.0985 12.2574 25.6927 11.8923C26.2872 11.5274 26.2134 9.9343 26.2134 9.9343C26.3603 9.20014 26.5842 8.48273 26.8814 7.79362C26.3326 7.25765 25.6694 6.84749 24.9391 6.59194C22.9973 6.08773 20.9578 6.06286 19.0037 6.5198C16.7779 7.02549 15.663 9.13195 15.5076 10.151C15.3522 11.17 15.2862 11.6035 15.896 13.193C16.506 14.7822 18.2734 16.2347 18.2734 16.2347C19.5319 16.3221 21.8354 16.3945 23.2456 15.8127Z" fill="#263238" stroke="#263238" stroke-linecap="round" stroke-linejoin="round"/>
<path d="M15.2318 19.805C15.2318 19.805 16.5641 17.6985 17.2324 17.4095C17.9004 17.1204 22.7252 17.1205 23.6885 17.265C24.6517 17.4095 26.3611 18.573 26.6563 19.2272C26.9513 19.881 27.1767 20.3867 27.1767 20.3867V20.824C27.1767 20.824 23.9875 19.3714 20.9616 19.3714C19.0434 19.3788 17.1284 19.5236 15.2318 19.805Z" fill="white" stroke="#263238" stroke-linecap="round" stroke-linejoin="round"/>
<path d="M27.1764 20.8241C26.5538 22.1277 25.8454 23.39 25.0554 24.6035C24.2176 25.9403 23.5644 27.3801 23.1133 28.8848L25.444 29.1207C25.444 29.1207 27.0637 24.938 28.035 23.5731C28.4294 22.9906 28.8627 22.4342 29.3324 21.9076C29.3324 21.9076 28.4078 20.767 27.1764 20.8241Z" fill="#263238" stroke="#263238" stroke-linecap="round" stroke-linejoin="round"/>
<path d="M15.2319 19.8051C15.2319 19.8051 14.8435 22.4667 15.0142 23.8924C15.1036 25.1052 15.1036 26.3224 15.0142 27.5352L13.3129 28.0903C13.3129 28.0903 12.8274 23.4934 12.9906 22.4628C13.1537 21.4325 13.3129 20.7214 13.3129 20.7214C13.3129 20.7214 14.3929 19.7822 15.2319 19.8051Z" fill="#263238" stroke="#263238" stroke-linecap="round" stroke-linejoin="round"/>
<path d="M11.7746 44.1816C11.7746 44.1816 10.6441 44.5618 10.2206 46.4629C9.79713 48.364 10.9509 50.4286 13.2972 51.3792C15.6434 52.3298 19.454 52.8052 23.0083 52.9649C26.5628 53.1245 29.484 52.8052 30.7773 50.5847C32.071 48.364 31.5854 45.9877 30.0471 45.5921C28.5089 45.1967 26.8073 46.0675 20.8993 45.5123C17.8308 45.2679 14.7824 44.8232 11.7746 44.1816Z" fill="#BD6AF0" stroke="#263238" stroke-linecap="round" stroke-linejoin="round"/>
<path d="M26.0618 46.9233C24.5661 48.6304 24.1933 52.7788 27.1842 52.7788H27.3358C28.8895 52.4745 30.0898 51.8319 30.8045 50.6039C31.8107 48.8776 31.7369 47.0562 30.9328 46.1475L29.7285 45.353C29.0379 45.3402 28.3526 45.4741 27.7194 45.7452C27.0865 46.0163 26.5209 46.4181 26.0618 46.9233Z" fill="#BD6AF0" stroke="#263238" stroke-linecap="round" stroke-linejoin="round"/>
<path d="M27.868 49.1589C27.868 49.1589 27.8098 50.3719 29.2781 49.9194C29.6241 49.784 29.9241 49.556 30.144 49.2616C30.3639 48.9669 30.4944 48.6178 30.5211 48.2542C30.5331 48.1645 30.5396 48.0744 30.5404 47.9841C30.56 47.3757 30.3423 46.8434 29.8995 46.7179C28.8817 46.4404 26.4034 48.2615 26.4034 49.5885C26.4034 50.9155 27.9845 51.3567 29.3946 50.4707C30.8047 49.5848 31.2009 48.6495 31.0882 46.4404" stroke="#263238" stroke-linecap="round" stroke-linejoin="round"/>
<path d="M12.1008 26.3488C12.1008 26.3488 18.5765 26.9039 22.0607 26.98C25.5452 27.0561 27.2427 26.7444 28.276 27.8545C29.3093 28.9648 30.6067 40.8507 31.1894 42.9914C31.7721 45.1323 30.8008 45.7672 28.3576 46.6378C25.9142 47.5086 22.0414 47.5086 17.5859 46.6378C13.1303 45.7672 11.188 45.117 10.7025 43.2159C10.217 41.3148 10.5431 35.2081 10.5431 31.8089C10.5431 28.4097 10.2363 26.4288 12.1008 26.3488Z" fill="#BD6AF0" stroke="#263238" stroke-linecap="round" stroke-linejoin="round"/>
<path d="M27.4097 38.7329C28.4315 38.6263 29.4359 38.3978 30.4009 38.0524C29.7793 33.8698 28.9908 28.5771 28.3072 27.8545C27.2546 26.7444 25.553 27.06 22.0919 26.98C18.631 26.9002 12.132 26.3488 12.132 26.3488C10.2675 26.4288 10.5783 28.4097 10.5783 31.8165C10.5783 33.2272 10.52 35.0941 10.4929 36.9384C10.9513 37.2082 16.2692 40.0294 27.4097 38.7329Z" fill="#BD6AF0" stroke="#263238" stroke-linecap="round" stroke-linejoin="round"/>
<path d="M11.9185 36.5541C12.0229 37.7033 11.9918 38.8607 11.8251 40.0028C11.6639 40.9625 11.5718 41.9317 11.5494 42.904L13.1225 43.5389C13.1225 43.5389 13.4021 41.0902 13.5887 40.0028C13.7154 38.9784 13.7777 37.9473 13.7752 36.9155L11.9185 36.5541Z" fill="#263238" stroke="#263238" stroke-linecap="round" stroke-linejoin="round"/>
<path d="M23.9682 37.6531C23.9682 37.6531 23.8748 39.2881 23.6923 40.4669C23.5098 41.6454 23.2261 44.4363 23.2261 44.4363H25.079C25.079 44.4363 25.7277 41.6454 25.7277 40.558C25.7277 39.4705 25.8209 37.5618 25.8209 37.5618L23.9682 37.6531Z" fill="#263238" stroke="#263238" stroke-linecap="round" stroke-linejoin="round"/>
<path d="M31.2086 42.9764C30.6415 40.8357 29.3479 28.9496 28.2953 27.8392C28.1328 27.6711 27.9456 27.5276 27.7397 27.4136C27.0639 27.6265 26.0693 28.1512 26.5124 29.345C27.1611 31.0866 27.8097 39.6493 27.4834 42.3412C27.157 45.0334 25.3779 46.3072 26.9979 46.9384L27.0872 46.9724C27.5251 46.886 27.9559 46.7693 28.3769 46.6228C30.8047 45.7673 31.7757 45.1323 31.2086 42.9764Z" fill="#BD6AF0" stroke="#263238" stroke-linecap="round" stroke-linejoin="round"/>
<path d="M14.0355 5.573C14.0355 5.573 14.9328 10.5161 14.9328 11.0903C14.9328 11.6644 15.0804 11.8165 17.4577 11.9611C19.8349 12.1056 23.0942 12.2538 24.9509 11.3106C26.8076 10.3679 30.0707 8.18514 30.7387 6.74809C31.407 5.3108 30.9601 5.07888 29.185 5.07888H26.9592C26.9592 5.07888 26.4386 2.97243 25.0169 2.31828C23.5953 1.66439 21.3811 0.356344 19.0077 1.37535C16.6341 2.39436 14.863 2.87715 14.0355 5.573Z" fill="#BD6AF0" stroke="#263238" stroke-linecap="round" stroke-linejoin="round"/>
<path d="M26.4346 10.1474C26.2727 10.298 26.1479 10.4824 26.0693 10.6873C27.8989 9.60352 30.191 7.92298 30.7307 6.73287C31.399 5.28031 30.9524 5.06366 29.177 5.06366H26.9513C26.9513 5.06366 27.6193 7.17011 27.6193 7.89639C27.6193 8.62267 27.324 9.27657 26.4346 10.1474Z" fill="#263238" stroke="#263238" stroke-linecap="round" stroke-linejoin="round"/>
<path d="M16.2884 11.2803C16.2884 11.2803 15.6668 9.15487 16.8051 8.95323C17.943 8.75184 19.1862 11.4856 19.1862 11.4856C18.2157 11.5949 17.2326 11.5252 16.2884 11.2803Z" fill="#263238" stroke="#263238" stroke-linecap="round" stroke-linejoin="round"/>
<defs>
<filter id="filter0_i_288_112" x="52.9292" y="17.9021" width="67.0708" height="22.0021" filterUnits="userSpaceOnUse" color-interpolation-filters="sRGB">
<feFlood flood-opacity="0" result="BackgroundImageFix"/>
<feBlend mode="normal" in="SourceGraphic" in2="BackgroundImageFix" result="shape"/>
<feColorMatrix in="SourceAlpha" type="matrix" values="0 0 0 0 0 0 0 0 0 0 0 0 0 0 0 0 0 0 127 0" result="hardAlpha"/>
<feOffset dy="4"/>
<feGaussianBlur stdDeviation="2"/>
<feComposite in2="hardAlpha" operator="arithmetic" k2="-1" k3="1"/>
<feColorMatrix type="matrix" values="0 0 0 0 0 0 0 0 0 0 0 0 0 0 0 0 0 0 0.25 0"/>
<feBlend mode="normal" in2="shape" result="effect1_innerShadow_288_112"/>
</filter>
<filter id="filter1_i_288_112" x="0" y="9.62982" width="43.6637" height="46.7397" filterUnits="userSpaceOnUse" color-interpolation-filters="sRGB">
<feFlood flood-opacity="0" result="BackgroundImageFix"/>
<feBlend mode="normal" in="SourceGraphic" in2="BackgroundImageFix" result="shape"/>
<feColorMatrix in="SourceAlpha" type="matrix" values="0 0 0 0 0 0 0 0 0 0 0 0 0 0 0 0 0 0 127 0" result="hardAlpha"/>
<feOffset dy="4"/>
<feGaussianBlur stdDeviation="2"/>
<feComposite in2="hardAlpha" operator="arithmetic" k2="-1" k3="1"/>
<feColorMatrix type="matrix" values="0 0 0 0 0 0 0 0 0 0 0 0 0 0 0 0 0 0 0.25 0"/>
<feBlend mode="normal" in2="shape" result="effect1_innerShadow_288_112"/>
</filter>
</defs>
</svg>
