<svg width="496" height="178" viewBox="0 0 496 178" fill="none" xmlns="http://www.w3.org/2000/svg">
<path d="M106.004 65.074V110.002H95.0603V83.058L85.0123 110.002H76.1803L66.0683 82.994V110.002H55.1243V65.074H68.0523L80.6603 96.178L93.1403 65.074H106.004ZM150.354 74.29L127.954 126.962H116.178L124.37 108.786L109.842 74.29H122.066L130.322 96.626L138.514 74.29H150.354ZM387.756 65.074V110.002H376.812V65.074H387.756ZM417.447 73.906C421.628 73.906 424.956 75.2713 427.431 78.002C429.948 80.69 431.207 84.402 431.207 89.138V110.002H420.327V90.61C420.327 88.2206 419.708 86.3646 418.471 85.042C417.233 83.7193 415.569 83.058 413.479 83.058C411.388 83.058 409.724 83.7193 408.487 85.042C407.249 86.3646 406.631 88.2206 406.631 90.61V110.002H395.687V74.29H406.631V79.026C407.74 77.4473 409.233 76.21 411.111 75.3139C412.988 74.3753 415.1 73.906 417.447 73.906Z" fill="#23B1D1"/>
<path d="M205.192 65.074V110.002H194.248V83.058L184.2 110.002H175.368L165.256 82.994V110.002H154.312V65.074H167.24L179.848 96.178L192.328 65.074H205.192ZM229.318 110.514C225.819 110.514 222.662 109.767 219.846 108.274C217.072 106.781 214.875 104.647 213.254 101.874C211.675 99.1006 210.886 95.858 210.886 92.146C210.886 88.4766 211.696 85.2553 213.318 82.482C214.939 79.666 217.158 77.5113 219.974 76.018C222.79 74.5246 225.947 73.778 229.446 73.778C232.944 73.778 236.102 74.5246 238.918 76.018C241.734 77.5113 243.952 79.666 245.574 82.482C247.195 85.2553 248.006 88.4766 248.006 92.146C248.006 95.8153 247.174 99.058 245.51 101.874C243.888 104.647 241.648 106.781 238.79 108.274C235.974 109.767 232.816 110.514 229.318 110.514ZM229.318 101.042C231.408 101.042 233.179 100.274 234.63 98.738C236.123 97.202 236.87 95.0046 236.87 92.146C236.87 89.2873 236.144 87.09 234.694 85.554C233.286 84.018 231.536 83.25 229.446 83.25C227.312 83.25 225.542 84.018 224.134 85.554C222.726 87.0473 222.022 89.2446 222.022 92.146C222.022 95.0046 222.704 97.202 224.07 98.738C225.478 100.274 227.227 101.042 229.318 101.042ZM275.572 73.906C279.753 73.906 283.081 75.2713 285.556 78.002C288.073 80.69 289.332 84.402 289.332 89.138V110.002H278.452V90.61C278.452 88.2206 277.833 86.3646 276.596 85.042C275.358 83.7193 273.694 83.058 271.604 83.058C269.513 83.058 267.849 83.7193 266.612 85.042C265.374 86.3646 264.756 88.2206 264.756 90.61V110.002H253.812V74.29H264.756V79.026C265.865 77.4473 267.358 76.21 269.236 75.3139C271.113 74.3753 273.225 73.906 275.572 73.906ZM330.601 91.57C330.601 92.594 330.537 93.6606 330.409 94.77H305.641C305.811 96.9886 306.515 98.6953 307.753 99.89C309.033 101.042 310.59 101.618 312.425 101.618C315.155 101.618 317.054 100.466 318.121 98.162H329.769C329.171 100.509 328.083 102.621 326.505 104.498C324.969 106.375 323.027 107.847 320.681 108.914C318.334 109.981 315.71 110.514 312.809 110.514C309.31 110.514 306.195 109.767 303.465 108.274C300.734 106.781 298.601 104.647 297.065 101.874C295.529 99.1006 294.761 95.858 294.761 92.146C294.761 88.434 295.507 85.1913 297.001 82.418C298.537 79.6446 300.67 77.5113 303.401 76.018C306.131 74.5246 309.267 73.778 312.809 73.778C316.265 73.778 319.337 74.5033 322.025 75.954C324.713 77.4046 326.803 79.474 328.297 82.162C329.833 84.85 330.601 87.986 330.601 91.57ZM319.401 88.69C319.401 86.8126 318.761 85.3193 317.481 84.21C316.201 83.1006 314.601 82.546 312.681 82.546C310.846 82.546 309.289 83.0793 308.009 84.146C306.771 85.2126 306.003 86.7273 305.705 88.69H319.401ZM372.854 74.29L350.454 126.962H338.678L346.87 108.786L332.342 74.29H344.566L352.822 96.626L361.014 74.29H372.854Z" fill="white"/>
<path d="M102.36 27.7799L66.5656 12.808C66.0961 12.6092 65.5821 12.538 65.0759 12.6019C64.5696 12.6657 64.0891 12.8622 63.6831 13.1714C63.2771 13.4806 62.96 13.8915 62.7641 14.3624C62.5682 14.8334 62.5005 15.3475 62.5677 15.8528L63.9978 26.7939C20.3034 35.9406 17.4368 79.8169 17.4368 79.8169L37.3467 82.1416C39.9176 49.4636 66.4989 45.163 66.4989 45.163L67.7227 54.6583C67.7877 55.165 67.986 55.6453 68.2975 56.0502C68.6089 56.4551 69.0224 56.7701 69.4957 56.963C69.969 57.1559 70.4853 57.2199 70.9917 57.1485C71.4982 57.077 71.9768 56.8726 72.3788 56.5562L103.055 32.6348C103.41 32.3069 103.68 31.8979 103.842 31.443C104.004 30.9881 104.053 30.5008 103.984 30.0232C103.916 29.5456 103.732 29.0918 103.449 28.7011C103.166 28.3103 102.792 27.9942 102.36 27.7799Z" fill="#E0E0E0"/>
<path d="M457.987 94.0428C455.696 123.217 434.415 129.615 429.814 130.666L428.181 118.106C428.152 117.863 428.058 117.632 427.908 117.438C427.758 117.244 427.558 117.094 427.331 117.005C427.103 116.916 426.856 116.891 426.616 116.933C426.376 116.975 426.153 117.082 425.97 117.242L391.124 144.267C390.939 144.408 390.794 144.596 390.705 144.812C390.616 145.029 390.586 145.265 390.618 145.498C390.649 145.73 390.742 145.951 390.885 146.137C391.029 146.322 391.219 146.467 391.435 146.556L432.093 163.987C432.31 164.076 432.545 164.108 432.776 164.078C433.008 164.047 433.227 163.957 433.411 163.815C433.596 163.674 433.741 163.486 433.83 163.27C433.92 163.054 433.952 162.818 433.923 162.586L432.161 149.15C474.886 139.868 477.729 96.579 477.729 96.579L457.987 94.0428Z" fill="#E0E0E0"/>
</svg>
