<svg width="340" height="76" viewBox="0 0 340 76" fill="none" xmlns="http://www.w3.org/2000/svg">
<g clip-path="url(#clip0_1937_1473)">
<mask id="mask0_1937_1473" style="mask-type:luminance" maskUnits="userSpaceOnUse" x="0" y="0" width="340" height="76">
<path d="M340 0H0V75.194H340V0Z" fill="white"/>
</mask>
<g mask="url(#mask0_1937_1473)">
<path d="M15.9586 58.5204C13.5441 58.5204 11.3849 58.3116 9.48108 57.8937C7.57726 57.4758 5.48772 56.9187 3.21244 56.2222C1.81941 55.7115 0.77464 55.4329 0.078125 55.3865L0.635335 42.7813H5.09302L6.2771 51.8347C7.06649 52.5776 8.34343 53.2509 10.1079 53.8545C11.9189 54.4114 13.8923 54.69 16.0283 54.69C19.5573 54.69 22.2273 53.9009 24.0381 52.3223C25.8956 50.7437 26.8243 48.5615 26.8243 45.7759C26.8243 43.9651 26.3135 42.4098 25.2919 41.1098C24.3168 39.8098 22.9935 38.6954 21.3218 37.7668C19.6966 36.8382 17.4445 35.7472 14.5656 34.4936C11.9653 33.3329 9.69002 32.149 7.73978 30.9419C5.83597 29.7347 4.16435 28.133 2.72489 26.1365C1.33185 24.0938 0.635335 21.6562 0.635335 18.824C0.635335 16.2704 1.30863 13.9954 2.65523 11.999C4.04826 9.95617 6.02171 8.35438 8.5756 7.19366C11.1759 6.03295 14.1941 5.4526 17.6303 5.4526C19.7663 5.4526 21.6468 5.61508 23.2721 5.94009C24.9438 6.2651 26.8243 6.70616 28.9139 7.2633C29.8424 7.58831 30.6318 7.79725 31.2819 7.89008L30.864 19.5901H26.6152L25.2224 11.024C24.758 10.5597 23.7829 10.1187 22.2969 9.70081C20.8575 9.28294 19.2787 9.07403 17.5606 9.07403C14.3567 9.07403 11.9189 9.74724 10.2472 11.0937C8.62204 12.4401 7.80944 14.3901 7.80944 16.9437C7.80944 18.8008 8.29699 20.3562 9.27212 21.6097C10.2936 22.8633 11.5474 23.9312 13.0333 24.8133C14.5192 25.6955 16.8873 26.9027 20.1377 28.4346C23.1559 29.874 25.617 31.174 27.5208 32.3348C29.4247 33.4955 31.0497 35.0277 32.3963 36.9311C33.7894 38.7883 34.4859 41.0169 34.4859 43.6168C34.4859 46.0776 33.7894 48.4455 32.3963 50.7204C31.0497 52.9954 28.9603 54.8757 26.1277 56.3615C23.3416 57.8008 19.952 58.5204 15.9586 58.5204ZM57.3837 58.5204C51.7652 58.5204 47.4701 56.6865 44.4984 53.0188C41.5729 49.3508 40.1103 44.4525 40.1103 38.324C40.1103 34.2848 40.8764 30.733 42.4088 27.6687C43.9412 24.6043 46.077 22.2365 48.8167 20.5651C51.6028 18.8937 54.7602 18.058 58.2893 18.058C62.6076 18.058 65.951 19.2651 68.319 21.6794C70.7337 24.0473 72.0105 27.4598 72.1498 31.9169C72.1498 34.7491 71.9874 36.908 71.6624 38.3938H47.7022C47.7951 42.9901 48.8631 46.7043 50.9063 49.5365C52.9492 52.3223 55.8516 53.7152 59.6127 53.7152C61.4701 53.7152 63.397 53.3902 65.3938 52.7402C67.437 52.0437 69.0155 51.2311 70.13 50.3027L71.4533 53.3669C70.1069 54.7598 68.1102 55.9669 65.4633 56.9884C62.8167 58.0096 60.1234 58.5204 57.3837 58.5204ZM64.4882 34.7027C64.6275 33.7277 64.6972 32.7293 64.6972 31.7081C64.6508 28.6901 64.0007 26.3222 62.7469 24.6043C61.5396 22.8402 59.6126 21.9579 56.9658 21.9579C54.2728 21.9579 52.1136 22.933 50.4884 24.8829C48.9096 26.8329 48.0042 30.1061 47.772 34.7027H64.4882ZM78.2755 54.3419L83.4994 53.924V24.4652L78.4843 23.2116V19.4508L88.0963 18.1972H88.2356L89.768 19.4508V20.7044L89.5589 26.1365H89.768C90.2324 25.3472 91.0682 24.3259 92.2753 23.0723C93.4826 21.8187 95.0381 20.6812 96.942 19.6597C98.8458 18.5919 100.913 18.058 103.142 18.058C104.07 18.058 104.836 18.174 105.44 18.4062V26.2062C105.115 25.9741 104.581 25.765 103.838 25.5793C103.142 25.3472 102.352 25.2312 101.47 25.2312C97.6154 25.2312 94.0399 26.415 90.7431 28.783V53.8545L99.5888 54.4114V57.7544H78.2755V54.3419ZM106.834 19.1026H122.993V22.3758L118.047 23.2811L125.082 43.3382L128.008 52.183L130.515 43.6168L137.55 23.2811L132.813 22.3758V19.1026H146.953V22.3758L143.331 23.2811L129.888 58.3115H123.968L109.968 23.2811L106.834 22.3758V19.1026ZM157.843 12.1383C156.358 12.1383 155.243 11.7204 154.5 10.8847C153.757 10.049 153.386 8.98117 153.386 7.68117C153.386 6.19546 153.827 4.96508 154.709 3.9901C155.638 3.01509 156.892 2.5276 158.47 2.5276C160.049 2.5276 161.21 2.94545 161.953 3.78116C162.696 4.61688 163.067 5.68473 163.067 6.98474C163.067 8.56329 162.603 9.81688 161.674 10.7455C160.792 11.674 159.538 12.1383 157.913 12.1383H157.843ZM155.057 24.4652L149.764 23.2116V19.5205L160.56 18.1972H160.699L162.301 19.4508V53.7847L167.873 54.3419V57.7544H149.416V54.3419L155.057 53.7152V24.4652ZM171.983 38.6723C171.983 34.8186 172.726 31.3366 174.212 28.2258C175.744 25.115 177.973 22.6544 180.899 20.8437C183.87 18.9865 187.423 18.058 191.555 18.058C193.552 18.058 195.27 18.2437 196.709 18.6151C198.149 18.9865 199.867 19.4972 201.864 20.1472L201.585 30.8723H197.058L195.525 23.7688C195.247 22.4687 193.482 21.8187 190.232 21.8187C186.982 21.8187 184.404 23.1418 182.501 25.7884C180.643 28.3882 179.714 32.1026 179.714 36.9311C179.714 42.4098 180.759 46.5883 182.849 49.467C184.985 52.299 187.748 53.7152 191.137 53.7152C193.088 53.7152 194.922 53.4133 196.64 52.8097C198.404 52.2061 199.914 51.4866 201.167 50.6508L202.491 53.4366C201.237 54.7364 199.379 55.9205 196.918 56.9884C194.504 58.0096 192.043 58.5204 189.535 58.5204C185.728 58.5204 182.501 57.6615 179.854 55.9436C177.254 54.2257 175.28 51.8811 173.934 48.9098C172.633 45.8919 171.983 42.4794 171.983 38.6723ZM225.663 58.5204C220.045 58.5204 215.749 56.6865 212.778 53.0188C209.852 49.3508 208.39 44.4525 208.39 38.324C208.39 34.2848 209.156 30.733 210.688 27.6687C212.221 24.6043 214.356 22.2365 217.096 20.5651C219.882 18.8937 223.04 18.058 226.568 18.058C230.888 18.058 234.231 19.2651 236.598 21.6794C239.013 24.0473 240.29 27.4598 240.428 31.9169C240.428 34.7491 240.268 36.908 239.941 38.3938H215.982C216.075 42.9901 217.143 46.7043 219.186 49.5365C221.229 52.3223 224.131 53.7152 227.893 53.7152C229.75 53.7152 231.676 53.3902 233.674 52.7402C235.717 52.0437 237.296 51.2311 238.41 50.3027L239.733 53.3669C238.385 54.7598 236.39 55.9669 233.744 56.9884C231.096 58.0096 228.403 58.5204 225.663 58.5204ZM232.768 34.7027C232.908 33.7277 232.976 32.7293 232.976 31.7081C232.931 28.6901 232.281 26.3222 231.026 24.6043C229.818 22.8402 227.893 21.9579 225.245 21.9579C222.552 21.9579 220.393 22.933 218.768 24.8829C217.189 26.8329 216.284 30.1061 216.051 34.7027H232.768ZM280.895 23.699H274.349V20.4954L280.895 19.1722V15.899C280.895 13.0204 281.638 10.374 283.124 7.95973C284.658 5.54546 286.631 3.64187 289.045 2.24902C291.505 0.809731 294.105 0.0900879 296.846 0.0900879C298.424 0.0900879 299.794 0.299017 300.956 0.716873V7.68117C300.537 7.30973 299.701 6.96153 298.448 6.63652C297.241 6.2651 295.893 6.07938 294.407 6.07938C292.226 6.07938 290.624 6.65973 289.603 7.82046C288.626 8.93474 288.139 10.8847 288.139 13.6705V19.1722H297.75V23.699H288.139V53.7847L295.87 54.3419V57.7544H274.974V54.3419L280.895 53.7152V23.699ZM308.854 75.0954C308.064 75.0954 307.274 75.049 306.484 74.9561C305.741 74.8633 305.207 74.724 304.883 74.5383V68.4795C305.162 68.6652 305.696 68.8045 306.484 68.8971C307.32 68.99 308.111 69.0364 308.854 69.0364C311.083 69.0364 313.031 68.2473 314.703 66.6687C316.422 65.1365 318.071 62.165 319.65 57.7544H316.307L303.071 23.2811L299.868 22.3758V19.1026H316.653V22.3758L311.292 23.2116L318.116 43.7561L321.322 53.924L324.316 43.6866L330.514 23.2116L325.846 22.3758V19.1026H339.848V22.3758L336.365 23.2116C329.54 44.1044 325.523 55.9669 324.316 58.799C322.737 62.7919 321.297 65.9025 319.996 68.1312C318.696 70.4062 317.165 72.1241 315.401 73.2847C313.636 74.4918 311.455 75.0954 308.854 75.0954Z" fill="white"/>
<path d="M257.421 41.1792C255.657 41.1792 254.171 40.5061 252.963 39.1596C251.756 37.8132 251.129 36.1881 251.081 34.2847C251.081 32.3346 251.779 30.7096 253.172 29.4096C254.565 28.1097 256.189 27.4597 258.046 27.4597C259.859 27.4597 261.367 28.1097 262.574 29.4096C263.782 30.6632 264.384 32.2882 264.384 34.2847C264.384 36.1881 263.689 37.8132 262.296 39.1596C260.903 40.5061 259.279 41.1792 257.421 41.1792Z" fill="#6CC551"/>
<mask id="mask1_1937_1473" style="mask-type:luminance" maskUnits="userSpaceOnUse" x="-1" y="-1" width="342" height="77">
<path d="M340.226 -0.226562H-0.226562V75.4204H340.226V-0.226562Z" fill="white"/>
<path d="M15.9586 58.5204C13.5441 58.5204 11.3849 58.3116 9.48108 57.8937C7.57726 57.4758 5.48772 56.9187 3.21244 56.2222C1.81941 55.7115 0.77464 55.4329 0.078125 55.3865L0.635335 42.7813H5.09302L6.2771 51.8347C7.06649 52.5776 8.34343 53.2509 10.1079 53.8545C11.9189 54.4114 13.8923 54.69 16.0283 54.69C19.5573 54.69 22.2273 53.9009 24.0381 52.3223C25.8956 50.7437 26.8243 48.5615 26.8243 45.7759C26.8243 43.9651 26.3135 42.4098 25.2919 41.1098C24.3168 39.8098 22.9935 38.6954 21.3218 37.7668C19.6966 36.8382 17.4445 35.7472 14.5656 34.4936C11.9653 33.3329 9.69002 32.149 7.73978 30.9419C5.83597 29.7347 4.16435 28.133 2.72489 26.1365C1.33185 24.0938 0.635335 21.6562 0.635335 18.824C0.635335 16.2704 1.30863 13.9954 2.65523 11.999C4.04826 9.95617 6.02171 8.35438 8.5756 7.19366C11.1759 6.03295 14.1941 5.4526 17.6303 5.4526C19.7663 5.4526 21.6468 5.61508 23.2721 5.94009C24.9438 6.2651 26.8243 6.70616 28.9139 7.2633C29.8424 7.58831 30.6318 7.79725 31.2819 7.89008L30.864 19.5901H26.6152L25.2224 11.024C24.758 10.5597 23.7829 10.1187 22.2969 9.70081C20.8575 9.28294 19.2787 9.07403 17.5606 9.07403C14.3567 9.07403 11.9189 9.74724 10.2472 11.0937C8.62204 12.4401 7.80944 14.3901 7.80944 16.9437C7.80944 18.8008 8.29699 20.3562 9.27212 21.6097C10.2936 22.8633 11.5474 23.9312 13.0333 24.8133C14.5192 25.6955 16.8873 26.9027 20.1377 28.4346C23.1559 29.874 25.617 31.174 27.5208 32.3348C29.4247 33.4955 31.0497 35.0277 32.3963 36.9311C33.7894 38.7883 34.4859 41.0169 34.4859 43.6168C34.4859 46.0776 33.7894 48.4455 32.3963 50.7204C31.0497 52.9954 28.9603 54.8757 26.1277 56.3615C23.3416 57.8008 19.952 58.5204 15.9586 58.5204ZM57.3837 58.5204C51.7652 58.5204 47.4701 56.6865 44.4984 53.0188C41.5729 49.3508 40.1103 44.4525 40.1103 38.324C40.1103 34.2848 40.8764 30.733 42.4088 27.6687C43.9412 24.6043 46.077 22.2365 48.8167 20.5651C51.6028 18.8937 54.7602 18.058 58.2893 18.058C62.6076 18.058 65.951 19.2651 68.319 21.6794C70.7337 24.0473 72.0105 27.4598 72.1498 31.9169C72.1498 34.7491 71.9874 36.908 71.6624 38.3938H47.7022C47.7951 42.9901 48.8631 46.7043 50.9063 49.5365C52.9492 52.3223 55.8516 53.7152 59.6127 53.7152C61.4701 53.7152 63.397 53.3902 65.3938 52.7402C67.437 52.0437 69.0155 51.2311 70.13 50.3027L71.4533 53.3669C70.1069 54.7598 68.1102 55.9669 65.4633 56.9884C62.8167 58.0096 60.1234 58.5204 57.3837 58.5204ZM64.4882 34.7027C64.6275 33.7277 64.6972 32.7293 64.6972 31.7081C64.6508 28.6901 64.0007 26.3222 62.7469 24.6043C61.5396 22.8402 59.6126 21.9579 56.9658 21.9579C54.2728 21.9579 52.1136 22.933 50.4884 24.8829C48.9096 26.8329 48.0042 30.1061 47.772 34.7027H64.4882ZM78.2755 54.3419L83.4994 53.924V24.4652L78.4843 23.2116V19.4508L88.0963 18.1972H88.2356L89.768 19.4508V20.7044L89.5589 26.1365H89.768C90.2324 25.3472 91.0682 24.3259 92.2753 23.0723C93.4826 21.8187 95.0381 20.6812 96.942 19.6597C98.8458 18.5919 100.913 18.058 103.142 18.058C104.07 18.058 104.836 18.174 105.44 18.4062V26.2062C105.115 25.9741 104.581 25.765 103.838 25.5793C103.142 25.3472 102.352 25.2312 101.47 25.2312C97.6154 25.2312 94.0399 26.415 90.7431 28.783V53.8545L99.5888 54.4114V57.7544H78.2755V54.3419ZM106.834 19.1026H122.993V22.3758L118.047 23.2811L125.082 43.3382L128.008 52.183L130.515 43.6168L137.55 23.2811L132.813 22.3758V19.1026H146.953V22.3758L143.331 23.2811L129.888 58.3115H123.968L109.968 23.2811L106.834 22.3758V19.1026ZM157.843 12.1383C156.358 12.1383 155.243 11.7204 154.5 10.8847C153.757 10.049 153.386 8.98117 153.386 7.68117C153.386 6.19546 153.827 4.96508 154.709 3.9901C155.638 3.01509 156.892 2.5276 158.47 2.5276C160.049 2.5276 161.21 2.94545 161.953 3.78116C162.696 4.61688 163.067 5.68473 163.067 6.98474C163.067 8.56329 162.603 9.81688 161.674 10.7455C160.792 11.674 159.538 12.1383 157.913 12.1383H157.843ZM155.057 24.4652L149.764 23.2116V19.5205L160.56 18.1972H160.699L162.301 19.4508V53.7847L167.873 54.3419V57.7544H149.416V54.3419L155.057 53.7152V24.4652ZM171.983 38.6723C171.983 34.8186 172.726 31.3366 174.212 28.2258C175.744 25.115 177.973 22.6544 180.899 20.8437C183.87 18.9865 187.423 18.058 191.555 18.058C193.552 18.058 195.27 18.2437 196.709 18.6151C198.149 18.9865 199.867 19.4972 201.864 20.1472L201.585 30.8723H197.058L195.525 23.7688C195.247 22.4687 193.482 21.8187 190.232 21.8187C186.982 21.8187 184.404 23.1418 182.501 25.7884C180.643 28.3882 179.714 32.1026 179.714 36.9311C179.714 42.4098 180.759 46.5883 182.849 49.467C184.985 52.299 187.748 53.7152 191.137 53.7152C193.088 53.7152 194.922 53.4133 196.64 52.8097C198.404 52.2061 199.914 51.4866 201.167 50.6508L202.491 53.4366C201.237 54.7364 199.379 55.9205 196.918 56.9884C194.504 58.0096 192.043 58.5204 189.535 58.5204C185.728 58.5204 182.501 57.6615 179.854 55.9436C177.254 54.2257 175.28 51.8811 173.934 48.9098C172.633 45.8919 171.983 42.4794 171.983 38.6723ZM225.663 58.5204C220.045 58.5204 215.749 56.6865 212.778 53.0188C209.852 49.3508 208.39 44.4525 208.39 38.324C208.39 34.2848 209.156 30.733 210.688 27.6687C212.221 24.6043 214.356 22.2365 217.096 20.5651C219.882 18.8937 223.04 18.058 226.568 18.058C230.888 18.058 234.231 19.2651 236.598 21.6794C239.013 24.0473 240.29 27.4598 240.428 31.9169C240.428 34.7491 240.268 36.908 239.941 38.3938H215.982C216.075 42.9901 217.143 46.7043 219.186 49.5365C221.229 52.3223 224.131 53.7152 227.893 53.7152C229.75 53.7152 231.676 53.3902 233.674 52.7402C235.717 52.0437 237.296 51.2311 238.41 50.3027L239.733 53.3669C238.385 54.7598 236.39 55.9669 233.744 56.9884C231.096 58.0096 228.403 58.5204 225.663 58.5204ZM232.768 34.7027C232.908 33.7277 232.976 32.7293 232.976 31.7081C232.931 28.6901 232.281 26.3222 231.026 24.6043C229.818 22.8402 227.893 21.9579 225.245 21.9579C222.552 21.9579 220.393 22.933 218.768 24.8829C217.189 26.8329 216.284 30.1061 216.051 34.7027H232.768ZM280.895 23.699H274.349V20.4954L280.895 19.1722V15.899C280.895 13.0204 281.638 10.374 283.124 7.95973C284.658 5.54546 286.631 3.64187 289.045 2.24902C291.505 0.809731 294.105 0.0900879 296.846 0.0900879C298.424 0.0900879 299.794 0.299017 300.956 0.716873V7.68117C300.537 7.30973 299.701 6.96153 298.448 6.63652C297.241 6.2651 295.893 6.07938 294.407 6.07938C292.226 6.07938 290.624 6.65973 289.603 7.82046C288.626 8.93474 288.139 10.8847 288.139 13.6705V19.1722H297.75V23.699H288.139V53.7847L295.87 54.3419V57.7544H274.974V54.3419L280.895 53.7152V23.699ZM308.854 75.0954C308.064 75.0954 307.274 75.049 306.484 74.9561C305.741 74.8633 305.207 74.724 304.883 74.5383V68.4795C305.162 68.6652 305.696 68.8045 306.484 68.8971C307.32 68.99 308.111 69.0364 308.854 69.0364C311.083 69.0364 313.031 68.2473 314.703 66.6687C316.422 65.1365 318.071 62.165 319.65 57.7544H316.307L303.071 23.2811L299.868 22.3758V19.1026H316.653V22.3758L311.292 23.2116L318.116 43.7561L321.322 53.924L324.316 43.6866L330.514 23.2116L325.846 22.3758V19.1026H339.848V22.3758L336.365 23.2116C329.54 44.1044 325.523 55.9669 324.316 58.799C322.737 62.7919 321.297 65.9025 319.996 68.1312C318.696 70.4062 317.165 72.1241 315.401 73.2847C313.636 74.4918 311.455 75.0954 308.854 75.0954Z" fill="black"/>
<path d="M257.421 41.1792C255.657 41.1792 254.171 40.5061 252.963 39.1596C251.756 37.8132 251.129 36.1881 251.081 34.2847C251.081 32.3346 251.779 30.7096 253.172 29.4096C254.565 28.1097 256.189 27.4597 258.046 27.4597C259.859 27.4597 261.367 28.1097 262.574 29.4096C263.782 30.6632 264.384 32.2882 264.384 34.2847C264.384 36.1881 263.689 37.8132 262.296 39.1596C260.903 40.5061 259.279 41.1792 257.421 41.1792Z" fill="black"/>
</mask>
<g mask="url(#mask1_1937_1473)">
<path d="M3.2126 56.2221L3.14707 56.4008L3.15191 56.4026L3.15687 56.4042L3.2126 56.2221ZM0.0782822 55.3864L-0.111898 55.378L-0.120117 55.5639L0.0656191 55.5764L0.0782822 55.3864ZM0.635493 42.7812V42.5907H0.453356L0.445315 42.7726L0.635493 42.7812ZM5.09318 42.7812L5.28195 42.7565L5.26028 42.5907H5.09318V42.7812ZM6.27726 51.8346L6.08851 51.8593L6.09732 51.9268L6.14679 51.9732L6.27726 51.8346ZM10.1081 53.8544L10.0465 54.0345L10.0493 54.0354L10.0521 54.0363L10.1081 53.8544ZM24.0383 52.3222L23.9151 52.177L23.9133 52.1786L24.0383 52.3222ZM25.2921 41.1097L25.1399 41.2239L25.141 41.2257L25.1424 41.2273L25.2921 41.1097ZM21.322 37.7668L21.2275 37.9321L21.2295 37.9332L21.322 37.7668ZM14.5658 34.4936L14.4882 34.6675L14.4898 34.6682L14.5658 34.4936ZM7.73994 30.9418L7.63799 31.1026L7.63973 31.1037L7.73994 30.9418ZM2.72505 26.1364L2.56775 26.2437L2.56916 26.2458L2.57061 26.2478L2.72505 26.1364ZM8.57576 7.19357L8.49816 7.01976L8.49698 7.0203L8.57576 7.19357ZM28.9141 7.26321L28.9768 7.08356L28.97 7.08116L28.963 7.0793L28.9141 7.26321ZM31.2821 7.89L31.4723 7.89679L31.4784 7.72577L31.309 7.70158L31.2821 7.89ZM30.8641 19.59V19.7804H31.0478L31.0544 19.5968L30.8641 19.59ZM26.6154 19.59L26.4276 19.6205L26.4536 19.7804H26.6154V19.59ZM25.2225 11.0239L25.4103 10.9934L25.4006 10.9328L25.3571 10.8894L25.2225 11.0239ZM22.2971 9.70072L22.244 9.88352L22.2456 9.88395L22.2971 9.70072ZM10.2474 11.0936L10.128 10.9453L10.1259 10.947L10.2474 11.0936ZM9.27228 21.6097L9.12201 21.7265L9.12332 21.7282L9.1247 21.7299L9.27228 21.6097ZM32.3965 36.931L32.2411 37.0411L32.2427 37.0431L32.2443 37.0454L32.3965 36.931ZM32.3965 50.7203L32.2341 50.6211L32.2327 50.6233L32.3965 50.7203ZM26.1279 56.3614L26.2154 56.5306L26.2163 56.5299L26.1279 56.3614ZM15.9588 58.33C13.5549 58.33 11.4097 58.1219 9.52203 57.7076L9.44042 58.0795C11.3603 58.5008 13.5336 58.7108 15.9588 58.7108V58.33ZM9.52203 57.7076C7.62419 57.2911 5.53971 56.7353 3.26832 56.0402L3.15687 56.4042C5.43605 57.1018 7.53064 57.6603 9.44042 58.0795L9.52203 57.7076ZM3.27813 56.0434C1.88275 55.5318 0.816347 55.2448 0.0909452 55.1966L0.0656191 55.5764C0.733245 55.6208 1.75639 55.891 3.14707 56.4008L3.27813 56.0434ZM0.268463 55.3948L0.825673 42.7896L0.445315 42.7726L-0.111898 55.378L0.268463 55.3948ZM0.635493 42.9714H5.09318V42.5907H0.635493V42.9714ZM4.90442 42.8057L6.08851 51.8593L6.46602 51.8099L5.28195 42.7565L4.90442 42.8057ZM6.14679 51.9732C6.96528 52.7435 8.27221 53.4275 10.0465 54.0345L10.1697 53.6741C8.41496 53.0739 7.16801 52.4115 6.40774 51.696L6.14679 51.9732ZM10.0521 54.0363C11.8833 54.5996 13.8759 54.8804 16.0285 54.8804V54.4997C13.9091 54.4997 11.9547 54.2234 10.1641 53.6723L10.0521 54.0363ZM16.0285 54.8804C19.5824 54.8804 22.3047 54.0859 24.1636 52.4656L23.9133 52.1786C22.1501 53.7156 19.5325 54.4997 16.0285 54.4997V54.8804ZM24.1618 52.4672C26.0679 50.8471 27.0147 48.6083 27.0147 45.7758H26.634C26.634 48.5145 25.7236 50.6401 23.9151 52.177L24.1618 52.4672ZM27.0147 45.7758C27.0147 43.9268 26.4922 42.3289 25.4418 40.9922L25.1424 41.2273C26.1352 42.4904 26.634 44.0033 26.634 45.7758H27.0147ZM25.4443 40.9956C24.4506 39.6706 23.1053 38.5398 21.4144 37.6005L21.2295 37.9332C22.882 38.8509 24.1833 39.9487 25.1399 41.2239L25.4443 40.9956ZM21.4164 37.6016C19.7826 36.6681 17.5234 35.5739 14.6418 34.3192L14.4898 34.6682C17.366 35.9204 19.611 37.0085 21.2275 37.9321L21.4164 37.6016ZM14.6434 34.3198C12.0491 33.1618 9.78164 31.9818 7.84013 30.7801L7.63973 31.1037C9.59873 32.3161 11.8819 33.504 14.4882 34.6675L14.6434 34.3198ZM7.8419 30.781C5.96037 29.5881 4.30606 28.0038 2.87946 26.0252L2.57061 26.2478C4.02296 28.262 5.7119 29.8814 7.63799 31.1026L7.8419 30.781ZM2.88232 26.0292C1.51387 24.0223 0.825859 21.6236 0.825859 18.8239H0.445129C0.445129 21.6886 1.15015 24.1648 2.56775 26.2437L2.88232 26.0292ZM0.825859 18.8239C0.825859 16.3059 1.48914 14.0684 2.81321 12.1054L2.4981 11.8917C1.12899 13.9215 0.445129 16.2348 0.445129 18.8239H0.825859ZM2.81321 12.1054C4.18408 10.095 6.12801 8.51515 8.65452 7.36685L8.49698 7.0203C5.91574 8.19344 3.9133 9.81634 2.4981 11.8917L2.81321 12.1054ZM8.65337 7.3674C11.2248 6.21958 14.2156 5.64285 17.6304 5.64285V5.26217C14.173 5.26217 11.1274 5.84615 8.49816 7.01976L8.65337 7.3674ZM17.6304 5.64285C19.7573 5.64285 21.6249 5.8047 23.2349 6.12665L23.3096 5.75335C21.6691 5.42531 19.7756 5.26217 17.6304 5.26217V5.64285ZM23.2349 6.12665C24.9013 6.45062 26.7785 6.89082 28.8649 7.44714L28.963 7.0793C26.8704 6.52133 24.9854 6.07918 23.3085 5.75317L23.2349 6.12665ZM28.8511 7.44289C29.7864 7.77016 30.5885 7.9832 31.2551 8.07843L31.309 7.70158C30.6757 7.6111 29.899 7.40628 28.9768 7.08356L28.8511 7.44289ZM31.0918 7.8832L30.6739 19.5832L31.0544 19.5968L31.4723 7.89679L31.0918 7.8832ZM30.8641 19.3997H26.6154V19.7804H30.8641V19.3997ZM26.8034 19.5595L25.4103 10.9934L25.0345 11.0545L26.4276 19.6205L26.8034 19.5595ZM25.3571 10.8894C25.1016 10.634 24.7183 10.3963 24.2213 10.1715C23.7221 9.94571 23.0971 9.72797 22.3486 9.51749L22.2456 9.88395C22.983 10.0913 23.5885 10.303 24.0644 10.5183C24.5425 10.7346 24.8789 10.9496 25.0878 11.1585L25.3571 10.8894ZM22.3502 9.51792C20.8912 9.09439 19.2943 8.8836 17.5608 8.8836V9.26428C19.2635 9.26428 20.8241 9.47133 22.244 9.88352L22.3502 9.51792ZM17.5608 8.8836C14.334 8.8836 11.8466 9.56109 10.128 10.9453L10.3668 11.2418C11.9915 9.93321 14.3797 9.26428 17.5608 9.26428V8.8836ZM10.1259 10.947C8.4479 12.3372 7.61923 14.3464 7.61923 16.9436H7.99996C7.99996 14.4336 8.79648 12.5428 10.3688 11.2401L10.1259 10.947ZM7.61923 16.9436C7.61923 18.8356 8.11666 20.4341 9.12201 21.7265L9.42255 21.4928C8.47764 20.2781 7.99996 18.7659 7.99996 16.9436H7.61923ZM9.1247 21.7299C10.1613 23.002 11.4325 24.0842 12.9363 24.977L13.1306 24.6495C11.6626 23.778 10.4264 22.7246 9.41985 21.4894L9.1247 21.7299ZM12.9363 24.977C14.4304 25.8639 16.8054 27.0743 20.0567 28.6069L20.2198 28.2629C16.9703 26.7312 14.6083 25.5269 13.1306 24.6495L12.9363 24.977ZM20.0567 28.6069C23.0717 30.0447 25.5256 31.3411 27.4218 32.4971L27.62 32.172C25.7086 31.0068 23.2414 29.7038 20.2198 28.2629L20.0567 28.6069ZM27.4218 32.4971C29.3025 33.6438 30.9088 35.1576 32.2411 37.0411L32.5519 36.8212C31.191 34.8974 29.5469 33.3471 27.62 32.172L27.4218 32.4971ZM32.2443 37.0454C33.6097 38.8657 34.2956 41.0529 34.2956 43.6167H34.6764C34.6764 40.9808 33.9694 38.711 32.5487 36.8169L32.2443 37.0454ZM34.2956 43.6167C34.2956 46.0394 33.6104 48.3734 32.2341 50.6211L32.5589 50.8197C33.9688 48.5174 34.6764 46.1155 34.6764 43.6167H34.2956ZM32.2327 50.6233C30.9076 52.8622 28.8472 54.72 26.0396 56.1929L26.2163 56.5299C29.0735 55.0312 31.1924 53.1285 32.5603 50.8172L32.2327 50.6233ZM26.0405 56.1924C23.2879 57.6143 19.9298 58.33 15.9588 58.33V58.7108C19.9745 58.7108 23.3959 57.9871 26.2154 56.5306L26.0405 56.1924ZM44.4986 53.0187L44.3497 53.1373L44.3507 53.1385L44.4986 53.0187ZM48.8169 20.565L48.719 20.4018L48.7176 20.4025L48.8169 20.565ZM68.3192 21.6793L68.1833 21.8126L68.1846 21.8139L68.186 21.8152L68.3192 21.6793ZM72.15 31.9168H72.3405V31.9139L72.3403 31.9109L72.15 31.9168ZM71.6626 38.3937V38.5839H71.8157L71.8485 38.4342L71.6626 38.3937ZM47.7024 38.3937V38.2032H47.5083L47.5121 38.3975L47.7024 38.3937ZM50.9065 49.5364L50.752 49.6478L50.7529 49.649L50.9065 49.5364ZM65.394 52.7401L65.4528 52.9211L65.4553 52.9201L65.394 52.7401ZM70.1302 50.3026L70.305 50.227L70.204 49.9932L70.0083 50.1563L70.1302 50.3026ZM71.4535 53.3668L71.5905 53.499L71.6786 53.4078L71.6283 53.2914L71.4535 53.3668ZM64.4883 34.7026V34.8928H64.6535L64.6768 34.7293L64.4883 34.7026ZM64.6974 31.708H64.8877V31.705L64.6974 31.708ZM62.7471 24.6042L62.5901 24.7118L62.5917 24.7143L62.5933 24.7165L62.7471 24.6042ZM50.4885 24.8828L50.3422 24.7609L50.3406 24.7632L50.4885 24.8828ZM47.7722 34.7026L47.5819 34.6929L47.5719 34.8928H47.7722V34.7026ZM57.3839 58.33C51.8107 58.33 47.5751 56.5134 44.6465 52.8989L44.3507 53.1385C47.3656 56.8594 51.7201 58.7108 57.3839 58.7108V58.33ZM44.6474 52.9C41.7561 49.2748 40.3008 44.4228 40.3008 38.3239H39.92C39.92 44.4823 41.3901 49.4266 44.3497 53.1373L44.6474 52.9ZM40.3008 38.3239C40.3008 34.309 41.0623 30.7873 42.5793 27.7537L42.2386 27.5834C40.6911 30.6786 39.92 34.2603 39.92 38.3239H40.3008ZM42.5793 27.7537C44.0967 24.719 46.209 22.3791 48.9161 20.7275L48.7176 20.4025C45.9455 22.0938 43.7859 24.4896 42.2386 27.5834L42.5793 27.7537ZM48.9147 20.7282C51.6687 19.0761 54.7919 18.2482 58.2895 18.2482V17.8675C54.7291 17.8675 51.5371 18.7111 48.719 20.4018L48.9147 20.7282ZM58.2895 18.2482C62.5716 18.2482 65.8604 19.4442 68.1833 21.8126L68.4551 21.546C66.042 19.0858 62.6441 17.8675 58.2895 17.8675V18.2482ZM68.186 21.8152C70.5556 24.1388 71.8216 27.4985 71.9597 31.9227L72.3403 31.9109C72.2001 27.4208 70.9121 23.9555 68.4526 21.5434L68.186 21.8152ZM71.9597 31.9168C71.9597 34.7447 71.7971 36.8875 71.4766 38.3529L71.8485 38.4342C72.1779 36.9283 72.3405 34.7531 72.3405 31.9168H71.9597ZM71.6626 38.2032H47.7024V38.5839H71.6626V38.2032ZM47.5121 38.3975C47.6055 43.0204 48.68 46.7758 50.752 49.6478L51.0607 49.425C49.0465 46.6328 47.9851 42.9597 47.8927 38.3898L47.5121 38.3975ZM50.7529 49.649C52.8355 52.4885 55.7972 53.9054 59.6128 53.9054V53.5246C55.9061 53.5246 53.0636 52.156 51.0598 49.4239L50.7529 49.649ZM59.6128 53.9054C61.4927 53.9054 63.4396 53.5765 65.4528 52.9211L65.3351 52.5591C63.3549 53.2037 61.4478 53.5246 59.6128 53.5246V53.9054ZM65.4553 52.9201C67.5107 52.2196 69.1133 51.3977 70.252 50.4487L70.0083 50.1563C68.9183 51.0645 67.3633 51.8677 65.3326 52.5598L65.4553 52.9201ZM69.9555 50.378L71.2788 53.4422L71.6283 53.2914L70.305 50.227L69.9555 50.378ZM71.3167 53.2345C69.9961 54.6005 68.027 55.795 65.3951 56.8108L65.5321 57.1659C68.1937 56.1388 70.2178 54.9189 71.5905 53.499L71.3167 53.2345ZM65.3951 56.8108C62.7693 57.8241 60.0994 58.33 57.3839 58.33V58.7108C60.1479 58.7108 62.8642 58.1953 65.5321 57.1659L65.3951 56.8108ZM64.6768 34.7293C64.8175 33.7452 64.8877 32.738 64.8877 31.708H64.5069C64.5069 32.7206 64.4381 33.7099 64.2999 34.6756L64.6768 34.7293ZM64.8877 31.705C64.841 28.6638 64.1857 26.2526 62.9009 24.4921L62.5933 24.7165C63.816 26.3919 64.4609 28.7163 64.5071 31.7107L64.8877 31.705ZM62.9043 24.4968C61.6528 22.6682 59.6588 21.7675 56.966 21.7675V22.1482C59.5668 22.1482 61.4268 23.012 62.5901 24.7118L62.9043 24.4968ZM56.966 21.7675C54.2204 21.7675 52.006 22.7646 50.3422 24.7609L50.6346 25.0046C52.2214 23.101 54.3255 22.1482 56.966 22.1482V21.7675ZM50.3406 24.7632C48.7226 26.7613 47.8148 30.0854 47.5819 34.6929L47.9622 34.7121C48.1939 30.1266 49.0968 26.9044 50.6365 25.0026L50.3406 24.7632ZM47.7722 34.8928H64.4883V34.5121H47.7722V34.8928ZM78.2757 54.3418L78.2605 54.152L78.0852 54.1661V54.3418H78.2757ZM83.4996 53.9239L83.5148 54.1137L83.6899 54.0997V53.9239H83.4996ZM83.4996 24.4651H83.6899V24.3163L83.5456 24.2803L83.4996 24.4651ZM78.4845 23.2115H78.2943V23.3601L78.4383 23.3961L78.4845 23.2115ZM78.4845 19.4507L78.4601 19.262L78.2943 19.2836V19.4507H78.4845ZM88.0965 18.1972V18.0068H88.084L88.0718 18.0084L88.0965 18.1972ZM88.2358 18.1972L88.3563 18.0498L88.3038 18.0068H88.2358V18.1972ZM89.7682 19.4507H89.9584V19.3605L89.8887 19.3034L89.7682 19.4507ZM89.7682 20.7043L89.9582 20.7116L89.9584 20.708V20.7043H89.7682ZM89.5591 26.1364L89.3688 26.1291L89.3614 26.3268H89.5591V26.1364ZM89.7682 26.1364V26.3268H89.8769L89.9322 26.2329L89.7682 26.1364ZM96.9421 19.6596L97.0323 19.8274L97.0339 19.8265L97.0353 19.8257L96.9421 19.6596ZM105.44 18.4061H105.63V18.2753L105.508 18.2284L105.44 18.4061ZM105.44 26.2061L105.329 26.361L105.63 26.576V26.2061H105.44ZM103.838 25.5792L103.777 25.76L103.785 25.7622L103.792 25.764L103.838 25.5792ZM90.7433 28.7829L90.6321 28.6282L90.5528 28.6853V28.7829H90.7433ZM90.7433 53.8544H90.5528V54.0331L90.7313 54.0442L90.7433 53.8544ZM99.589 54.4113H99.7793V54.2326L99.601 54.2215L99.589 54.4113ZM99.589 57.7543V57.9445H99.7793V57.7543H99.589ZM78.2757 57.7543H78.0852V57.9445H78.2757V57.7543ZM78.2909 54.5316L83.5148 54.1137L83.4844 53.7341L78.2605 54.152L78.2909 54.5316ZM83.6899 53.9239V24.4651H83.3091V53.9239H83.6899ZM83.5456 24.2803L78.5307 23.0267L78.4383 23.3961L83.4534 24.6497L83.5456 24.2803ZM78.675 23.2115V19.4507H78.2943V23.2115H78.675ZM78.5092 19.6395L88.1212 18.3859L88.0718 18.0084L78.4601 19.262L78.5092 19.6395ZM88.0965 18.3875H88.2358V18.0068H88.0965V18.3875ZM88.1153 18.3445L89.6474 19.598L89.8887 19.3034L88.3563 18.0498L88.1153 18.3445ZM89.5777 19.4507V20.7043H89.9584V19.4507H89.5777ZM89.5779 20.697L89.3688 26.1291L89.7494 26.1438L89.9582 20.7116L89.5779 20.697ZM89.5591 26.3268H89.7682V25.9461H89.5591V26.3268ZM89.9322 26.2329C90.385 25.4633 91.2081 24.4547 92.4127 23.2043L92.1384 22.9402C90.9284 24.1967 90.0799 25.2309 89.6039 26.0399L89.9322 26.2329ZM92.4127 23.2043C93.6033 21.9678 95.1418 20.8416 97.0323 19.8274L96.8522 19.4919C94.935 20.5206 93.3623 21.6693 92.1384 22.9402L92.4127 23.2043ZM97.0353 19.8257C98.9101 18.7741 100.944 18.2482 103.141 18.2482V17.8675C100.88 17.8675 98.7819 18.4095 96.8491 19.4936L97.0353 19.8257ZM103.141 18.2482C104.056 18.2482 104.797 18.3628 105.371 18.5837L105.508 18.2284C104.875 17.9851 104.084 17.8675 103.141 17.8675V18.2482ZM105.249 18.4061V26.2061H105.63V18.4061H105.249ZM105.55 26.0512C105.195 25.7975 104.633 25.5819 103.884 25.3946L103.792 25.764C104.529 25.9482 105.034 26.1502 105.329 26.361L105.55 26.0512ZM103.898 25.3987C103.179 25.1589 102.368 25.0406 101.47 25.0406V25.4214C102.335 25.4214 103.104 25.5353 103.777 25.76L103.898 25.3987ZM101.47 25.0406C97.5735 25.0406 93.9596 26.2385 90.6321 28.6282L90.8543 28.9373C94.1207 26.5916 97.6575 25.4214 101.47 25.4214V25.0406ZM90.5528 28.7829V53.8544H90.9336V28.7829H90.5528ZM90.7313 54.0442L99.577 54.6014L99.601 54.2215L90.7551 53.6644L90.7313 54.0442ZM99.3985 54.4113V57.7543H99.7793V54.4113H99.3985ZM99.589 57.5641H78.2757V57.9445H99.589V57.5641ZM78.4659 57.7543V54.3418H78.0852V57.7543H78.4659ZM106.833 19.1025V18.9122H106.643V19.1025H106.833ZM122.992 19.1025H123.183V18.9122H122.992V19.1025ZM122.992 22.3757L123.027 22.563L123.183 22.5344V22.3757H122.992ZM118.047 23.281L118.013 23.0937L117.794 23.1341L117.867 23.344L118.047 23.281ZM125.082 43.3381L125.263 43.2786L125.262 43.2767V43.2752L125.082 43.3381ZM128.007 52.1829L127.827 52.2427L128.018 52.8225L128.19 52.2364L128.007 52.1829ZM130.515 43.6167L130.335 43.5546L130.333 43.559L130.332 43.5633L130.515 43.6167ZM137.55 23.281L137.729 23.3433L137.801 23.1354L137.585 23.0942L137.55 23.281ZM132.813 22.3757H132.623V22.5331L132.777 22.5627L132.813 22.3757ZM132.813 19.1025V18.9122H132.623V19.1025H132.813ZM146.953 19.1025H147.143V18.9122H146.953V19.1025ZM146.953 22.3757L146.999 22.5604L147.143 22.5243V22.3757H146.953ZM143.331 23.281L143.285 23.0965L143.188 23.1205L143.153 23.2129L143.331 23.281ZM129.888 58.3115V58.5017H130.019L130.066 58.3796L129.888 58.3115ZM123.968 58.3115L123.791 58.3821L123.839 58.5017H123.968V58.3115ZM109.967 23.281L110.144 23.2104L110.11 23.1241L110.02 23.0983L109.967 23.281ZM106.833 22.3757H106.643V22.5189L106.78 22.5586L106.833 22.3757ZM106.833 19.2928H122.992V18.9122H106.833V19.2928ZM122.802 19.1025V22.3757H123.183V19.1025H122.802ZM122.958 22.1885L118.013 23.0937L118.082 23.4683L123.027 22.563L122.958 22.1885ZM117.867 23.344L124.902 43.4013L125.262 43.2752L118.227 23.2181L117.867 23.344ZM124.901 43.3979L127.827 52.2427L128.188 52.1231L125.263 43.2786L124.901 43.3979ZM128.19 52.2364L130.698 43.6702L130.332 43.5633L127.825 52.1295L128.19 52.2364ZM130.695 43.679L137.729 23.3433L137.37 23.2188L130.335 43.5546L130.695 43.679ZM137.585 23.0942L132.849 22.1888L132.777 22.5627L137.514 23.4681L137.585 23.0942ZM133.004 22.3757V19.1025H132.623V22.3757H133.004ZM132.813 19.2928H146.953V18.9122H132.813V19.2928ZM146.762 19.1025V22.3757H147.143V19.1025H146.762ZM146.906 22.1911L143.285 23.0965L143.377 23.4656L146.999 22.5604L146.906 22.1911ZM143.153 23.2129L129.71 58.2433L130.066 58.3796L143.508 23.3492L143.153 23.2129ZM129.888 58.1212H123.968V58.5017H129.888V58.1212ZM124.144 58.2408L110.144 23.2104L109.791 23.3517L123.791 58.3821L124.144 58.2408ZM110.02 23.0983L106.886 22.1929L106.78 22.5586L109.915 23.464L110.02 23.0983ZM107.024 22.3757V19.1025H106.643V22.3757H107.024ZM154.709 3.99001L154.571 3.85874L154.569 3.8605L154.568 3.86229L154.709 3.99001ZM161.674 10.7454L161.539 10.6108L161.538 10.6125L161.536 10.6143L161.674 10.7454ZM155.057 24.4651H155.248V24.3145L155.101 24.2799L155.057 24.4651ZM149.764 23.2115H149.573V23.3619L149.72 23.3966L149.764 23.2115ZM149.764 19.5204L149.74 19.3314L149.573 19.3519V19.5204H149.764ZM160.56 18.1972V18.0068H160.548L160.536 18.0082L160.56 18.1972ZM160.699 18.1972L160.816 18.0472L160.765 18.0068H160.699V18.1972ZM162.301 19.4507H162.491V19.358L162.418 19.3008L162.301 19.4507ZM162.301 53.7847H162.11V53.957L162.282 53.974L162.301 53.7847ZM167.873 54.3418H168.063V54.1695L167.892 54.1525L167.873 54.3418ZM167.873 57.7543V57.9445H168.063V57.7543H167.873ZM149.415 57.7543H149.225V57.9445H149.415V57.7543ZM149.415 54.3418L149.394 54.1527L149.225 54.1715V54.3418H149.415ZM155.057 53.7151L155.078 53.9042L155.248 53.8854V53.7151H155.057ZM157.843 11.9479C156.393 11.9479 155.338 11.541 154.642 10.7582L154.358 11.0111C155.148 11.8997 156.322 12.3286 157.843 12.3286V11.9479ZM154.642 10.7582C153.935 9.9629 153.576 8.94251 153.576 7.68108H153.195C153.195 9.01965 153.579 10.135 154.358 11.0111L154.642 10.7582ZM153.576 7.68108C153.576 6.23598 154.003 5.05312 154.85 4.1177L154.568 3.86229C153.65 4.87689 153.195 6.15476 153.195 7.68108H153.576ZM154.847 4.12128C155.733 3.19053 156.933 2.71785 158.47 2.71785V2.33717C156.849 2.33717 155.542 2.83948 154.571 3.85874L154.847 4.12128ZM158.47 2.71785C160.017 2.71785 161.116 3.127 161.81 3.90752L162.095 3.65463C161.303 2.76374 160.08 2.33717 158.47 2.33717V2.71785ZM161.81 3.90752C162.517 4.70281 162.877 5.72321 162.877 6.98465H163.257C163.257 5.64609 162.874 4.53075 162.095 3.65463L161.81 3.90752ZM162.877 6.98465C162.877 8.52364 162.425 9.72493 161.539 10.6108L161.809 10.88C162.78 9.90864 163.257 8.6028 163.257 6.98465H162.877ZM161.536 10.6143C160.699 11.4954 159.501 11.9479 157.913 11.9479V12.3286C159.575 12.3286 160.885 11.8524 161.812 10.8765L161.536 10.6143ZM157.913 11.9479H157.843V12.3286H157.913V11.9479ZM155.101 24.2799L149.808 23.0262L149.72 23.3966L155.013 24.6502L155.101 24.2799ZM149.954 23.2115V19.5204H149.573V23.2115H149.954ZM149.787 19.7093L160.583 18.3861L160.536 18.0082L149.74 19.3314L149.787 19.7093ZM160.56 18.3875H160.699V18.0068H160.56V18.3875ZM160.582 18.3471L162.183 19.6006L162.418 19.3008L160.816 18.0472L160.582 18.3471ZM162.11 19.4507V53.7847H162.491V19.4507H162.11ZM162.282 53.974L167.854 54.5312L167.892 54.1525L162.32 53.5953L162.282 53.974ZM167.683 54.3418V57.7543H168.063V54.3418H167.683ZM167.873 57.5641H149.415V57.9445H167.873V57.5641ZM149.606 57.7543V54.3418H149.225V57.7543H149.606ZM149.436 54.5309L155.078 53.9042L155.036 53.5258L149.394 54.1527L149.436 54.5309ZM155.248 53.7151V24.4651H154.867V53.7151H155.248ZM174.212 28.2257L174.041 28.1417L174.04 28.1437L174.212 28.2257ZM180.898 20.8436L180.998 21.0054L180.999 21.005L180.898 20.8436ZM201.863 20.1472L202.054 20.1521L202.057 20.0101L201.922 19.9662L201.863 20.1472ZM201.585 30.8722V31.0625H201.77L201.775 30.877L201.585 30.8722ZM197.057 30.8722L196.871 30.9123L196.904 31.0625H197.057V30.8722ZM182.5 25.7883L182.346 25.6771L182.345 25.6775L182.5 25.7883ZM182.848 49.4669L182.694 49.5785L182.696 49.5799V49.5815L182.848 49.4669ZM196.64 52.8096L196.578 52.6296L196.576 52.63L196.64 52.8096ZM201.167 50.6507L201.339 50.569L201.244 50.3703L201.061 50.4924L201.167 50.6507ZM202.49 53.4365L202.627 53.5686L202.719 53.4737L202.662 53.3548L202.49 53.4365ZM196.918 56.9883L196.992 57.1636L196.994 57.1629L196.918 56.9883ZM179.853 55.9435L179.749 56.1023L179.75 56.1032L179.853 55.9435ZM173.933 48.9097L173.758 48.9849L173.759 48.9865L173.76 48.9883L173.933 48.9097ZM172.173 38.6722C172.173 34.8437 172.911 31.39 174.384 28.3077L174.04 28.1437C172.54 31.2829 171.792 34.7936 171.792 38.6722H172.173ZM174.382 28.3098C175.899 25.2309 178.104 22.7973 180.998 21.0054L180.798 20.6817C177.842 22.5114 175.589 24.9992 174.041 28.1417L174.382 28.3098ZM180.999 21.005C183.936 19.1699 187.451 18.2482 191.555 18.2482V17.8675C187.393 17.8675 183.805 18.8029 180.797 20.6822L180.999 21.005ZM191.555 18.2482C193.541 18.2482 195.242 18.433 196.662 18.7993L196.757 18.4307C195.298 18.0542 193.563 17.8675 191.555 17.8675V18.2482ZM196.662 18.7993C198.096 19.1694 199.81 19.6789 201.804 20.3281L201.922 19.9662C199.923 19.3154 198.201 18.8034 196.757 18.4307L196.662 18.7993ZM201.673 20.1422L201.394 30.8673L201.775 30.877L202.054 20.1521L201.673 20.1422ZM201.585 30.6818H197.057V31.0625H201.585V30.6818ZM197.244 30.8319L195.711 23.7284L195.339 23.8085L196.871 30.9123L197.244 30.8319ZM195.711 23.7284C195.553 22.9901 194.974 22.4648 194.058 22.1275C193.145 21.791 191.865 21.6282 190.232 21.6282V22.0089C191.848 22.0089 193.076 22.1711 193.927 22.4847C194.776 22.7973 195.218 23.2466 195.339 23.8085L195.711 23.7284ZM190.232 21.6282C186.92 21.6282 184.285 22.9812 182.346 25.6771L182.655 25.8995C184.523 23.3026 187.043 22.0089 190.232 22.0089V21.6282ZM182.345 25.6775C180.456 28.3227 179.524 32.0819 179.524 36.931H179.905C179.905 32.1231 180.83 28.4545 182.655 25.8995L182.345 25.6775ZM179.524 36.931C179.524 42.4295 180.572 46.6541 182.694 49.5785L183.003 49.355C180.946 46.5223 179.905 42.3898 179.905 36.931H179.524ZM182.696 49.5815C184.866 52.4586 187.684 53.9054 191.137 53.9054V53.5246C187.81 53.5246 185.102 52.1392 183 49.3523L182.696 49.5815ZM191.137 53.9054C193.107 53.9054 194.963 53.6005 196.703 52.9892L196.576 52.63C194.88 53.2261 193.067 53.5246 191.137 53.5246V53.9054ZM196.701 52.9897C198.478 52.382 200.002 51.6559 201.273 50.8091L201.061 50.4924C199.824 51.3171 198.33 52.03 196.578 52.6296L196.701 52.9897ZM200.995 50.7325L202.318 53.5181L202.662 53.3548L201.339 50.569L200.995 50.7325ZM202.353 53.3043C201.123 54.5796 199.291 55.7512 196.842 56.8137L196.994 57.1629C199.468 56.0894 201.35 54.8931 202.627 53.5686L202.353 53.3043ZM196.844 56.813C194.452 57.825 192.016 58.33 189.535 58.33V58.7108C192.069 58.7108 194.555 58.1944 196.992 57.1636L196.844 56.813ZM189.535 58.33C185.756 58.33 182.567 57.478 179.957 55.7839L179.75 56.1032C182.433 57.8449 185.698 58.7108 189.535 58.7108V58.33ZM179.959 55.7848C177.389 54.0877 175.439 51.7714 174.107 48.8311L173.76 48.9883C175.12 51.9906 177.117 54.3638 179.749 56.1023L179.959 55.7848ZM174.108 48.8343C172.819 45.8438 172.173 42.4575 172.173 38.6722H171.792C171.792 42.501 172.446 45.9398 173.758 48.9849L174.108 48.8343ZM212.778 53.0187L212.629 53.1373L212.63 53.1385L212.778 53.0187ZM217.096 20.565L216.998 20.4018L216.997 20.4025L217.096 20.565ZM236.598 21.6793L236.462 21.8126L236.464 21.8139V21.8152L236.598 21.6793ZM240.428 31.9168H240.618V31.9139V31.9109L240.428 31.9168ZM239.941 38.3937V38.5839H240.095L240.127 38.4342L239.941 38.3937ZM215.981 38.3937V38.2032H215.787L215.791 38.3975L215.981 38.3937ZM219.185 49.5364L219.031 49.6478L219.032 49.649L219.185 49.5364ZM233.673 52.7401L233.732 52.9211L233.734 52.9201L233.673 52.7401ZM238.41 50.3026L238.584 50.227L238.482 49.9932L238.287 50.1563L238.41 50.3026ZM239.733 53.3668L239.869 53.499L239.957 53.4078L239.907 53.2914L239.733 53.3668ZM232.767 34.7026V34.8928H232.933L232.955 34.7293L232.767 34.7026ZM232.976 31.708H233.166V31.705L232.976 31.708ZM231.025 24.6042L230.869 24.7118L230.871 24.7143V24.7165L231.025 24.6042ZM218.767 24.8828L218.621 24.7609L218.62 24.7632L218.767 24.8828ZM216.051 34.7026L215.861 34.6929L215.851 34.8928H216.051V34.7026ZM225.663 58.33C220.09 58.33 215.854 56.5134 212.925 52.8989L212.63 53.1385C215.645 56.8594 219.999 58.7108 225.663 58.7108V58.33ZM212.926 52.9C210.035 49.2748 208.58 44.4228 208.58 38.3239H208.199C208.199 44.4823 209.669 49.4266 212.629 53.1373L212.926 52.9ZM208.58 38.3239C208.58 34.309 209.341 30.7873 210.858 27.7537L210.518 27.5834C208.97 30.6786 208.199 34.2603 208.199 38.3239H208.58ZM210.858 27.7537C212.376 24.719 214.488 22.3791 217.195 20.7275L216.997 20.4025C214.224 22.0938 212.065 24.4896 210.518 27.5834L210.858 27.7537ZM217.194 20.7282C219.948 19.0761 223.071 18.2482 226.568 18.2482V17.8675C223.008 17.8675 219.816 18.7111 216.998 20.4018L217.194 20.7282ZM226.568 18.2482C230.851 18.2482 234.14 19.4442 236.462 21.8126L236.734 21.546C234.321 19.0858 230.923 17.8675 226.568 17.8675V18.2482ZM236.464 21.8152C238.833 24.1388 240.1 27.4985 240.238 31.9227L240.618 31.9109C240.478 27.4208 239.191 23.9555 236.731 21.5434L236.464 21.8152ZM240.238 31.9168C240.238 34.7447 240.077 36.8875 239.755 38.3529L240.127 38.4342C240.457 36.9283 240.618 34.7531 240.618 31.9168H240.238ZM239.941 38.2032H215.981V38.5839H239.941V38.2032ZM215.791 38.3975C215.884 43.0204 216.959 46.7758 219.031 49.6478L219.34 49.425C217.325 46.6328 216.264 42.9597 216.172 38.3898L215.791 38.3975ZM219.032 49.649C221.114 52.4885 224.076 53.9054 227.893 53.9054V53.5246C224.185 53.5246 221.343 52.156 219.339 49.4239L219.032 49.649ZM227.893 53.9054C229.77 53.9054 231.719 53.5765 233.732 52.9211L233.614 52.5591C231.635 53.2037 229.727 53.5246 227.893 53.5246V53.9054ZM233.734 52.9201C235.789 52.2196 237.393 51.3977 238.532 50.4487L238.287 50.1563C237.198 51.0645 235.642 51.8677 233.612 52.5598L233.734 52.9201ZM238.235 50.378L239.558 53.4422L239.907 53.2914L238.584 50.227L238.235 50.378ZM239.597 53.2345C238.276 54.6005 236.305 55.795 233.673 56.8108L233.812 57.1659C236.473 56.1388 238.496 54.9189 239.869 53.499L239.597 53.2345ZM233.673 56.8108C231.048 57.8241 228.377 58.33 225.663 58.33V58.7108C228.427 58.7108 231.143 58.1953 233.812 57.1659L233.673 56.8108ZM232.955 34.7293C233.096 33.7452 233.166 32.738 233.166 31.708H232.785C232.785 32.7206 232.717 33.7099 232.579 34.6756L232.955 34.7293ZM233.166 31.705C233.121 28.6638 232.464 26.2526 231.179 24.4921L230.871 24.7165C232.095 26.3919 232.74 28.7163 232.785 31.7107L233.166 31.705ZM231.184 24.4968C229.931 22.6682 227.938 21.7675 225.245 21.7675V22.1482C227.845 22.1482 229.705 23.012 230.869 24.7118L231.184 24.4968ZM225.245 21.7675C222.499 21.7675 220.285 22.7646 218.621 24.7609L218.914 25.0046C220.5 23.101 222.604 22.1482 225.245 22.1482V21.7675ZM218.62 24.7632C217.002 26.7613 216.094 30.0854 215.861 34.6929L216.241 34.7121C216.473 30.1266 217.376 26.9044 218.915 25.0026L218.62 24.7632ZM216.051 34.8928H232.767V34.5121H216.051V34.8928ZM251.081 34.2847H250.891V34.287V34.2893L251.081 34.2847ZM262.574 29.4096L262.434 29.5391L262.436 29.5405V29.5416L262.574 29.4096ZM257.421 40.989C255.711 40.989 254.277 40.3399 253.104 39.0326L252.821 39.2867C254.062 40.6724 255.6 41.3697 257.421 41.3697V40.989ZM253.104 39.0326C251.928 37.7217 251.317 36.1408 251.271 34.28L250.891 34.2893C250.938 36.2355 251.582 37.9047 252.821 39.2867L253.104 39.0326ZM251.271 34.2847C251.271 32.3861 251.949 30.8118 253.301 29.5489L253.043 29.2705C251.609 30.6075 250.891 32.2833 250.891 34.2847H251.271ZM253.301 29.5489C254.66 28.2808 256.239 27.65 258.046 27.65V27.2693C256.139 27.2693 254.47 27.9385 253.043 29.2705L253.301 29.5489ZM258.046 27.65C259.806 27.65 261.265 28.279 262.434 29.5391L262.715 29.28C261.469 27.9404 259.911 27.2693 258.046 27.2693V27.65ZM262.436 29.5416C263.605 30.7545 264.194 32.3297 264.194 34.2847H264.575C264.575 32.2468 263.958 30.5719 262.713 29.2775L262.436 29.5416ZM264.194 34.2847C264.194 36.1356 263.519 37.7115 262.164 39.0229L262.427 39.2964C263.857 37.9149 264.575 36.2409 264.575 34.2847H264.194ZM262.164 39.0229C260.803 40.3365 259.227 40.989 257.421 40.989V41.3697C259.328 41.3697 261 40.6755 262.427 39.2964L262.164 39.0229ZM280.895 23.6989H281.085V23.5087H280.895V23.6989ZM274.349 23.6989H274.158V23.8894H274.349V23.6989ZM274.349 20.4954L274.31 20.3088L274.158 20.3396V20.4954H274.349ZM280.895 19.1721L280.934 19.3587L281.085 19.3279V19.1721H280.895ZM283.124 7.95964L282.963 7.85765V7.85989L283.124 7.95964ZM300.955 0.716786H301.146V0.583009L301.019 0.537695L300.955 0.716786ZM300.955 7.68108L300.828 7.82334L301.146 8.10493V7.68108H300.955ZM298.448 6.63643L298.391 6.81837L298.396 6.81961L298.4 6.82068L298.448 6.63643ZM288.139 19.1721H287.949V19.3625H288.139V19.1721ZM297.75 19.1721H297.94V18.9818H297.75V19.1721ZM297.75 23.6989V23.8894H297.94V23.6989H297.75ZM288.139 23.6989V23.5087H287.949V23.6989H288.139ZM288.139 53.7847H287.949V53.9618L288.125 53.9744L288.139 53.7847ZM295.87 54.3418H296.06V54.1647L295.884 54.152L295.87 54.3418ZM295.87 57.7543V57.9445H296.06V57.7543H295.87ZM274.974 57.7543H274.784V57.9445H274.974V57.7543ZM274.974 54.3418L274.956 54.1525L274.784 54.1706V54.3418H274.974ZM280.895 53.7151L280.915 53.9042L281.085 53.8863V53.7151H280.895ZM280.895 23.5087H274.349V23.8894H280.895V23.5087ZM274.539 23.6989V20.4954H274.158V23.6989H274.539ZM274.385 20.6819L280.934 19.3587L280.859 18.9856L274.31 20.3088L274.385 20.6819ZM281.085 19.1721V15.8989H280.705V19.1721H281.085ZM281.085 15.8989C281.085 13.055 281.819 10.4432 283.287 8.05941L282.963 7.85989C281.457 10.3046 280.705 12.9857 280.705 15.8989H281.085ZM283.285 8.06163C284.8 5.67261 286.753 3.79093 289.14 2.41381L288.95 2.08406C286.508 3.49269 284.513 5.41813 282.963 7.85765L283.285 8.06163ZM289.14 2.41381C291.573 0.990855 294.142 0.280344 296.846 0.280344V-0.100342C294.071 -0.100342 291.437 0.629013 288.948 2.08463L289.14 2.41381ZM296.846 0.280344C298.409 0.280344 299.755 0.487218 300.89 0.895877L301.019 0.537695C299.834 0.110641 298.441 -0.100342 296.846 -0.100342V0.280344ZM300.765 0.716786V7.68108H301.146V0.716786H300.765ZM301.082 7.5388C300.627 7.13411 299.75 6.77728 298.495 6.45218L298.4 6.82068C299.653 7.1456 300.448 7.48519 300.828 7.82334L301.082 7.5388ZM298.504 6.45451C297.274 6.07662 295.909 5.88895 294.407 5.88895V6.26963C295.879 6.26963 297.204 6.45338 298.391 6.81837L298.504 6.45451ZM294.407 5.88895C292.194 5.88895 290.529 6.47814 289.46 7.69463L289.745 7.94612C290.717 6.84115 292.257 6.26963 294.407 6.26963V5.88895ZM289.46 7.69463C288.436 8.86338 287.949 10.8742 287.949 13.6704H288.329C288.329 10.8951 288.819 9.00595 289.745 7.94612L289.46 7.69463ZM287.949 13.6704V19.1721H288.329V13.6704H287.949ZM288.139 19.3625H297.75V18.9818H288.139V19.3625ZM297.56 19.1721V23.6989H297.94V19.1721H297.56ZM297.75 23.5087H288.139V23.8894H297.75V23.5087ZM287.949 23.6989V53.7847H288.329V23.6989H287.949ZM288.125 53.9744L295.856 54.5316L295.884 54.152L288.153 53.5949L288.125 53.9744ZM295.68 54.3418V57.7543H296.06V54.3418H295.68ZM295.87 57.5641H274.974V57.9445H295.87V57.5641ZM275.166 57.7543V54.3418H274.784V57.7543H275.166ZM274.994 54.5312L280.915 53.9042L280.875 53.5258L274.956 54.1525L274.994 54.5312ZM281.085 53.7151V23.6989H280.705V53.7151H281.085ZM304.883 74.5382H304.693V74.6487L304.788 74.7035L304.883 74.5382ZM304.883 68.4794L304.987 68.3209L304.693 68.1236V68.4794H304.883ZM306.485 68.897L306.462 69.0862L306.464 69.0864L306.485 68.897ZM314.703 66.6686L314.578 66.5266L314.576 66.5284L314.573 66.5302L314.703 66.6686ZM319.65 57.7543L319.829 57.8184L319.919 57.5641H319.65V57.7543ZM316.306 57.7543L316.127 57.8225L316.175 57.9445H316.306V57.7543ZM303.071 23.281L303.25 23.2129L303.216 23.1239L303.123 23.0978L303.071 23.281ZM299.868 22.3757H299.678V22.5197L299.816 22.5589L299.868 22.3757ZM299.868 19.1025V18.9122H299.678V19.1025H299.868ZM316.653 19.1025H316.843V18.9122H316.653V19.1025ZM316.653 22.3757L316.682 22.5638L316.843 22.5387V22.3757H316.653ZM311.291 23.2115L311.262 23.0233L311.04 23.058L311.11 23.2715L311.291 23.2115ZM318.116 43.756L318.297 43.6989V43.696L318.116 43.756ZM321.321 53.9239L321.138 53.9812L321.328 54.5787L321.503 53.9774L321.321 53.9239ZM324.316 43.6865L324.132 43.6312V43.633L324.316 43.6865ZM330.513 23.2115L330.697 23.2665L330.758 23.0618L330.547 23.024L330.513 23.2115ZM325.847 22.3757H325.657V22.535L325.813 22.5631L325.847 22.3757ZM325.847 19.1025V18.9122H325.657V19.1025H325.847ZM339.848 19.1025H340.038V18.9122H339.848V19.1025ZM339.848 22.3757L339.891 22.5608L340.038 22.5258V22.3757H339.848ZM336.364 23.2115L336.321 23.0262L336.217 23.0512L336.185 23.1524L336.364 23.2115ZM324.316 58.7989L324.141 58.7243L324.139 58.7266V58.7289L324.316 58.7989ZM319.996 68.1311L319.833 68.0353L319.831 68.0366L319.996 68.1311ZM315.4 73.2846L315.296 73.1256L315.294 73.1265L315.291 73.1276L315.4 73.2846ZM308.854 74.9051C308.07 74.9051 307.289 74.8591 306.507 74.7672L306.462 75.1449C307.259 75.2386 308.057 75.2858 308.854 75.2858V74.9051ZM306.507 74.7672C305.771 74.675 305.268 74.5391 304.978 74.3731L304.788 74.7035C305.148 74.9087 305.712 75.0514 306.462 75.1449L306.507 74.7672ZM305.073 74.5382V68.4794H304.693V74.5382H305.073ZM304.777 68.6377C305.098 68.8513 305.674 68.9933 306.462 69.0862L306.507 68.7082C305.717 68.6153 305.225 68.4787 304.987 68.3209L304.777 68.6377ZM306.464 69.0864C307.305 69.1799 308.102 69.2268 308.854 69.2268V68.8461C308.118 68.8461 307.336 68.8001 306.505 68.7079L306.464 69.0864ZM308.854 69.2268C311.133 69.2268 313.128 68.4178 314.834 66.807L314.573 66.5302C312.936 68.0765 311.031 68.8461 308.854 68.8461V69.2268ZM314.829 66.8106C316.587 65.2447 318.247 62.2342 319.829 57.8184L319.471 57.6902C317.892 62.0958 316.256 65.0282 314.578 66.5266L314.829 66.8106ZM319.65 57.5641H316.306V57.9445H319.65V57.5641ZM316.483 57.6861L303.25 23.2129L302.894 23.3492L316.127 57.8225L316.483 57.6861ZM303.123 23.0978L299.92 22.1926L299.816 22.5589L303.021 23.4643L303.123 23.0978ZM300.058 22.3757V19.1025H299.678V22.3757H300.058ZM299.868 19.2928H316.653V18.9122H299.868V19.2928ZM316.463 19.1025V22.3757H316.843V19.1025H316.463ZM316.623 22.1876L311.262 23.0233L311.321 23.3995L316.682 22.5638L316.623 22.1876ZM311.11 23.2715L317.935 43.816L318.297 43.696L311.472 23.1515L311.11 23.2715ZM317.935 43.8133L321.138 53.9812L321.503 53.8666L318.297 43.6989L317.935 43.8133ZM321.503 53.9774L324.497 43.7399L324.132 43.633L321.138 53.8705L321.503 53.9774ZM324.497 43.7415L330.697 23.2665L330.332 23.1562L324.132 43.6312L324.497 43.7415ZM330.547 23.024L325.881 22.1884L325.813 22.5631L330.482 23.3988L330.547 23.024ZM326.037 22.3757V19.1025H325.657V22.3757H326.037ZM325.847 19.2928H339.848V18.9122H325.847V19.2928ZM339.658 19.1025V22.3757H340.038V19.1025H339.658ZM339.803 22.1906L336.321 23.0262L336.41 23.3966L339.891 22.5608L339.803 22.1906ZM336.185 23.1524C329.356 44.0509 325.344 55.9021 324.141 58.7243L324.49 58.8736C325.702 56.0316 329.723 44.1578 336.545 23.2706L336.185 23.1524ZM324.139 58.7289C322.56 62.718 321.126 65.8186 319.833 68.0353L320.162 68.2271C321.469 65.9865 322.911 62.8657 324.493 58.8688L324.139 58.7289ZM319.831 68.0366C318.542 70.2918 317.029 71.985 315.296 73.1256L315.504 73.4436C317.301 72.2631 318.85 70.5203 320.162 68.2255L319.831 68.0366ZM315.291 73.1276C313.565 74.3088 311.423 74.9051 308.854 74.9051V75.2858C311.484 75.2858 313.706 74.6748 315.507 73.4418L315.291 73.1276Z" fill="white"/>
</g>
</g>
</g>
<defs>
<clipPath id="clip0_1937_1473">
<rect width="340" height="76" fill="white"/>
</clipPath>
</defs>
</svg>
